<svg fill="none" viewBox="0 0 600 600" xmlns="http://www.w3.org/2000/svg" class="h-full"><linearGradient id="crv_svg__a" gradientUnits="userSpaceOnUse" x1="218.76" x2="381.24" y1="11.13" y2="588.87"><stop offset="0" stop-color="#ffb1b9"></stop><stop offset=".15" stop-color="#ffb4b7"></stop><stop offset=".22" stop-color="#ffb2b2"></stop><stop offset=".46" stop-color="#ffc9a9"></stop><stop offset=".7" stop-color="#ffeea7"></stop><stop offset=".75" stop-color="#fff9c4"></stop><stop offset=".82" stop-color="#e8f4b9"></stop><stop offset=".95" stop-color="#a2e3f4"></stop><stop offset=".98" stop-color="#96dcfd"></stop></linearGradient><radialGradient id="crv_svg__b" cx="0" cy="0" gradientTransform="rotate(54.17 -42.31 263.4) scale(497.082)" gradientUnits="userSpaceOnUse" r="1"><stop offset="0" stop-color="#fff"></stop><stop offset="1" stop-color="#1d1c1c"></stop></radialGradient><linearGradient id="crv_svg__c" gradientUnits="userSpaceOnUse" x1="254.3" x2="333.52" y1="135.99" y2="417.68"><stop offset="0" stop-color="#f44336"></stop><stop offset=".12" stop-color="#f66342"></stop><stop offset=".39" stop-color="#fbb45f"></stop><stop offset=".58" stop-color="#fef075"></stop><stop offset=".6" stop-color="#f2ed7c"></stop><stop offset=".71" stop-color="#acdaa7"></stop><stop offset=".81" stop-color="#75cbc9"></stop><stop offset=".89" stop-color="#4dc0e1"></stop><stop offset=".96" stop-color="#34b9f0"></stop><stop offset="1" stop-color="#2bb7f6"></stop></linearGradient><linearGradient id="crv_svg__d" gradientUnits="userSpaceOnUse" x1="178.34" x2="215.39" y1="304.89" y2="436.71"><stop offset=".39" stop-color="#fef075"></stop><stop offset=".42" stop-color="#f2ed7c"></stop><stop offset=".58" stop-color="#acdaa7"></stop><stop offset=".72" stop-color="#75cbc9"></stop><stop offset=".84" stop-color="#4dc0e1"></stop><stop offset=".94" stop-color="#34b9f0"></stop><stop offset="1" stop-color="#2bb7f6"></stop></linearGradient><path d="M300 600c165.69 0 300-134.31 300-300S465.69 0 300 0 0 134.31 0 300s134.31 300 300 300z" fill="url(#crv_svg__a)"></path><path d="M300 600c165.69 0 300-134.31 300-300S465.69 0 300 0 0 134.31 0 300s134.31 300 300 300z" fill="url(#crv_svg__b)" fill-opacity=".35" opacity=".5"></path><path d="M484.85 283.52a114.31 114.31 0 00-6.27-31.62s-4.79-13.27-13.34-25.66c-30.67-44.3-115.44-79.24-130.7-85.51a456.08 456.08 0 00-36.05-12.83 357.29 357.29 0 00-70.77-13.56c-6.93-.6-30.08.3-52.27 13.05-33.47 19.24-44.67 55.21-51.68 77.7-8.4 26.98-8.84 50.35-8.84 69.22 0 14.67.96 31.4 3.61 49.69 1.77 12.38 5.38 36.04 15.33 63.32 10.91 29.93 33.47 91.56 76.75 97.97a45.21 45.21 0 0019.83-1.03c33.9-9.66 55.21-61.85 56.02-129.38.81-15.26.74-32.87-1.1-52.41-1.18-12.16-3.03-31.7-9.96-56.32a296.26 296.26 0 00-15.7-42.76c-2.36-7.52-3.83-16.51.74-21.9 9.58-11.2 39.96.08 69.74 11.36a489.6 489.6 0 0172.68 34.87c22.05 15.92 22.78 25.58 21.97 29.93-3.31 16.95-43.2 24.18-78.8 30.6-18.58 3.3-27.72 5.96-38.63 5-8.04-.73-11.13-2.2-14.23.08-7.15 5.3.52 19.9.37 49.76 0 10.47-1.03 21.97-1.48 27.57-1.69 19.9-3.98 31.04 1.04 33.91 2.36 1.33 5.23.22 8.03-.81 10.84-3.98 22.12-6.86 33.25-9.88 29.56-7.89 58.98-15.26 68.19-17.62a239.4 239.4 0 0031.26-8.03c13.41-4.5 21.38-7.82 28.75-13.94 25.06-20.42 22.85-60.37 22.26-70.77zM224.03 454.04c-27.13 6.41-58.46-27.43-69.88-75.71-11.43-48.29 1.25-92.6 28.38-99 27.13-6.42 58.46 27.42 69.88 75.7 11.43 48.21-1.25 92.6-28.38 99z" fill="url(#crv_svg__c)"></path><path d="M172.43 313.68c-25.36 28.16.22 84.1 3.02 90.08 8.11 17.18 16.52 23.96 23.67 27.57a44.93 44.93 0 0017.02 4.65 20.2 20.2 0 0016.81-10.62 89.14 89.14 0 01-24.47-22.19c-1.62-2.14-30.96-42.31-13.5-76.45 4.73-9.21 11.5-15.4 16.96-19.31-2.43-2.36-6.78-5.6-12.68-6.49-13.49-2.06-24.62 10.32-26.83 12.75z" fill="url(#crv_svg__d)"></path></svg>