<svg xmlns="http://www.w3.org/2000/svg" viewBox="0 0 500 500"><defs><style>.cls-1{isolation:isolate;}.cls-2,.cls-3{fill:#c072ff;}.cls-3{mix-blend-mode:luminosity;}</style></defs><g class="cls-1"><g id="Layer_1" data-name="Layer 1"><path class="cls-2" d="M390,350v26.66H356.64A113.45,113.45,0,0,1,250,301.69a113.45,113.45,0,0,1-106.64,74.94H110V350h33.34a86.63,86.63,0,0,0,86.39-80h40.5a86.63,86.63,0,0,0,86.39,80Z"/><path class="cls-2" d="M416.62,263.33a60.17,60.17,0,0,1-1.21,12.09h0a60,60,0,0,1-118.19-3.94,59.69,59.69,0,0,1,5.82-35.1,58.13,58.13,0,0,1,5.3-8.64c.19-.25.4-.51.61-.8a73,73,0,0,0,14.36-43.6h0a73.31,73.31,0,1,0-146.62,0h0A73,73,0,0,0,191.05,227c.21.29.42.55.61.8a58.13,58.13,0,0,1,5.3,8.64,60,60,0,1,1-112.37,39h0A60.19,60.19,0,0,1,101,220.91l7.8,7.81,11,11.05a33.32,33.32,0,1,0,50.37,3.76c-.12-.14-.21-.27-.31-.4a99.64,99.64,0,0,1-17.45-38c-.09-.37-.16-.76-.25-1.14A101.09,101.09,0,0,1,150,183.35q0-3.22.21-6.4a98.83,98.83,0,0,1,5.27-26.29,100,100,0,0,1,189,0A98.83,98.83,0,0,1,349.76,177q.21,3.18.21,6.4A101.09,101.09,0,0,1,347.84,204c-.09.38-.16.77-.25,1.14a99.64,99.64,0,0,1-17.45,38c-.1.13-.19.26-.31.4a33.33,33.33,0,1,0,50.37-3.76l11.05-11.05,7.8-7.81A59.8,59.8,0,0,1,416.62,263.33Z"/><path class="cls-2" d="M190.38,416.62a60,60,0,0,1,119.24,0h-27a33.34,33.34,0,0,0-65.32,0Z"/><path class="cls-3" d="M250,256.66h0a.08.08,0,0,1,0,0A.08.08,0,0,1,250,256.66Z"/><path class="cls-3" d="M250,256.66h0a.08.08,0,0,1,0,0A.08.08,0,0,1,250,256.66Z"/><path class="cls-3" d="M250,256.66h0a.08.08,0,0,1,0,0A.08.08,0,0,1,250,256.66Z"/><path class="cls-3" d="M250,256.66h0a.08.08,0,0,1,0,0A.08.08,0,0,1,250,256.66Z"/><circle class="cls-2" cx="236.67" cy="223.34" r="6.66"/><circle class="cls-2" cx="263.33" cy="223.34" r="6.66"/></g></g></svg>