<svg xmlns="http://www.w3.org/2000/svg" viewBox="0 0 1200 500"><defs><style>.cls-1{isolation:isolate;}.cls-2,.cls-3{fill:#a524ff;}.cls-3{mix-blend-mode:luminosity;}</style></defs><g class="cls-1"><g id="Layer_1" data-name="Layer 1"><path class="cls-2" d="M649.66,212.31q10,10.6,10,33.57V322.8H632.29v-77q0-12.21-5.22-17T611.41,224a22.28,22.28,0,0,0-14.34,4.61A24.89,24.89,0,0,0,588.89,241l.11,2.53V322.8H561.63V246.1q0-12-5.32-17T540.65,224q-15.72,0-22.31,12.86V322.8H491V203.9h25.71l.88,12.53a40.17,40.17,0,0,1,14.67-10.94,48.41,48.41,0,0,1,19.61-3.79,41.11,41.11,0,0,1,19.57,4.45,29.79,29.79,0,0,1,12.85,13.68,42.22,42.22,0,0,1,15.28-13.35,45.52,45.52,0,0,1,21.2-4.78Q639.65,201.7,649.66,212.31Z"/><path class="cls-2" d="M713.5,162.53A14.11,14.11,0,0,1,717.68,173a13.81,13.81,0,0,1-4.18,10.33q-4.17,4.07-11.32,4.07t-11.32-4A13.79,13.79,0,0,1,686.69,173a14.1,14.1,0,0,1,4.17-10.49q4.18-4.12,11.32-4.12T713.5,162.53Zm-25,160.27V203.9h27.36V322.8Z"/><path class="cls-2" d="M903.17,212.31q10,10.6,10,33.57V322.8H885.8v-77q0-12.21-5.22-17T864.92,224a22.28,22.28,0,0,0-14.34,4.61A24.89,24.89,0,0,0,842.4,241l.11,2.53V322.8H815.15V246.1q0-12-5.33-17T794.16,224q-15.72,0-22.31,12.86V322.8H744.49V203.9H770.2l.88,12.53a40.17,40.17,0,0,1,14.67-10.94,48.43,48.43,0,0,1,19.62-3.79,41.09,41.09,0,0,1,19.56,4.45,29.79,29.79,0,0,1,12.85,13.68,42.22,42.22,0,0,1,15.28-13.35,45.53,45.53,0,0,1,21.21-4.78Q893.16,201.7,903.17,212.31Z"/><path class="cls-2" d="M967,162.53A14.11,14.11,0,0,1,971.19,173,13.81,13.81,0,0,1,967,183.35q-4.17,4.07-11.32,4.07t-11.32-4A13.79,13.79,0,0,1,940.2,173a14.1,14.1,0,0,1,4.17-10.49q4.18-4.12,11.32-4.12T967,162.53ZM942,322.8V203.9h27.36V322.8Z"/><path class="cls-2" d="M1095.91,283.24a38.26,38.26,0,0,1-6.92,21,46.66,46.66,0,0,1-17.59,15.16,52.1,52.1,0,0,1-24.06,5.61q-17.7,0-29.95-7.92A48.4,48.4,0,0,1,999.1,295.6a73.87,73.87,0,0,1-6.05-30.38v-3.74a73.36,73.36,0,0,1,6.1-30.38,49,49,0,0,1,18.3-21.49q12.19-7.91,29.78-7.91a53.89,53.89,0,0,1,25.11,5.66,42.13,42.13,0,0,1,17.09,15.88,46.82,46.82,0,0,1,6.48,23.41h-25.82a26.78,26.78,0,0,0-3.19-11.6,21.66,21.66,0,0,0-8-8.29,22.85,22.85,0,0,0-12-3.08q-14.61,0-20.55,10.66t-5.93,27.14v3.74q0,37.8,26.59,37.8a25.6,25.6,0,0,0,11.43-2.53,20.87,20.87,0,0,0,8.24-7,19.82,19.82,0,0,0,3.41-10.22Z"/><path class="cls-2" d="M410.66,350v26.66H377.35a113.45,113.45,0,0,1-106.64-74.94,113.45,113.45,0,0,1-106.64,74.94H130.74V350h33.33a86.63,86.63,0,0,0,86.39-80H291a86.63,86.63,0,0,0,86.39,80Z"/><path class="cls-2" d="M437.33,263.33a60.17,60.17,0,0,1-1.21,12.09h0a60,60,0,0,1-118.19-3.94,59.69,59.69,0,0,1,5.82-35.1,58.13,58.13,0,0,1,5.3-8.64c.19-.25.4-.51.61-.8A73,73,0,0,0,344,183.35h0a73.31,73.31,0,1,0-146.62,0h0A73.17,73.17,0,0,0,211.76,227c.21.29.42.55.61.8a57.31,57.31,0,0,1,5.3,8.64,60,60,0,1,1-112.36,39h0a60.1,60.1,0,0,1,16.35-54.51l7.8,7.81,11,11.05a33.32,33.32,0,1,0,50.37,3.76c-.12-.14-.21-.27-.31-.4a99.64,99.64,0,0,1-17.45-38c-.09-.37-.16-.76-.25-1.14a101.09,101.09,0,0,1-2.13-20.65q0-3.22.21-6.4a98.83,98.83,0,0,1,5.27-26.29A100,100,0,0,1,370.48,177q.19,3.18.2,6.4A101.09,101.09,0,0,1,368.55,204c-.09.38-.16.77-.25,1.14a99.41,99.41,0,0,1-9.45,25.43,100.42,100.42,0,0,1-8,12.56c-.1.13-.19.26-.31.4a33.33,33.33,0,1,0,50.37-3.76l11-11.05,7.81-7.81A59.84,59.84,0,0,1,437.33,263.33Z"/><path class="cls-2" d="M211.09,416.62a60,60,0,0,1,119.24,0h-27a33.34,33.34,0,0,0-65.32,0Z"/><path class="cls-3" d="M270.73,256.66h0a.08.08,0,0,1,0,0S270.73,256.65,270.73,256.66Z"/><path class="cls-3" d="M270.73,256.66h0a.08.08,0,0,1,0,0S270.73,256.65,270.73,256.66Z"/><path class="cls-3" d="M270.73,256.66h0a.08.08,0,0,1,0,0S270.73,256.65,270.73,256.66Z"/><path class="cls-3" d="M270.73,256.66h0a.08.08,0,0,1,0,0S270.73,256.65,270.73,256.66Z"/><circle class="cls-2" cx="257.38" cy="223.34" r="6.66"/><circle class="cls-2" cx="284.04" cy="223.34" r="6.66"/></g></g></svg>