<svg width="90" height="90" viewBox="0 0 90 90" fill="none" xmlns="http://www.w3.org/2000/svg">
<path d="M79.3728 82.2985C80.4175 82.2985 80.9399 82.2985 81.339 82.0952C81.69 81.9163 81.9754 81.6309 82.1542 81.2799C82.3576 80.8808 82.3576 80.3585 82.3576 79.3137V40.5111C82.3576 39.4664 82.3576 38.944 82.1542 38.5449C81.9754 38.1939 81.69 37.9085 81.339 37.7297C80.9399 37.5263 80.4175 37.5263 79.3728 37.5263L70.4183 37.5263C69.3735 37.5263 68.8512 37.5263 68.4521 37.7297C68.1011 37.9085 67.8157 38.1939 67.6368 38.5449C67.4335 38.944 67.4335 39.4664 67.4335 40.5111V49.4656C67.4335 50.5103 67.4335 51.0327 67.2302 51.4318C67.0513 51.7828 66.7659 52.0682 66.4149 52.2471C66.0159 52.4504 65.4935 52.4504 64.4487 52.4504H55.4943C54.4495 52.4504 53.9271 52.4504 53.528 52.6537C53.177 52.8326 52.8916 53.1179 52.7128 53.469C52.5095 53.868 52.5095 54.3904 52.5095 55.4352V64.3896C52.5095 65.4344 52.5095 65.9568 52.3061 66.3558C52.1273 66.7069 51.8419 66.9923 51.4909 67.1711C51.0918 67.3744 50.5694 67.3744 49.5247 67.3744H40.5702C39.5254 67.3744 39.003 67.3744 38.604 67.5778C38.253 67.7566 37.9676 68.042 37.7887 68.393C37.5854 68.7921 37.5854 69.3145 37.5854 70.3592V79.3137C37.5854 80.3585 37.5854 80.8808 37.7887 81.2799C37.9676 81.6309 38.253 81.9163 38.604 82.0951C39.003 82.2985 39.5254 82.2985 40.5702 82.2985L79.3728 82.2985Z" stroke="#FCFCFC" stroke-width="5.51042" stroke-linecap="round" stroke-linejoin="round"/>
<path d="M37.5854 25.5871C37.5854 24.5423 37.5854 24.0199 37.7887 23.6209C37.9676 23.2698 38.253 22.9845 38.604 22.8056C39.003 22.6023 39.5254 22.6023 40.5702 22.6023H49.5247C50.5694 22.6023 51.0918 22.6023 51.4909 22.8056C51.8419 22.9845 52.1273 23.2698 52.3061 23.6209C52.5095 24.0199 52.5095 24.5423 52.5095 25.5871V34.5415C52.5095 35.5863 52.5095 36.1087 52.3061 36.5077C52.1273 36.8588 51.8419 37.1441 51.4909 37.323C51.0918 37.5263 50.5694 37.5263 49.5247 37.5263H40.5702C39.5254 37.5263 39.003 37.5263 38.604 37.323C38.253 37.1441 37.9676 36.8588 37.7887 36.5077C37.5854 36.1087 37.5854 35.5863 37.5854 34.5415V25.5871Z" stroke="#FCFCFC" stroke-width="5.51042" stroke-linecap="round" stroke-linejoin="round"/>
<path d="M11.4683 47.9732C11.4683 46.9284 11.4683 46.406 11.6716 46.0069C11.8505 45.6559 12.1359 45.3705 12.4869 45.1917C12.886 44.9884 13.4083 44.9884 14.4531 44.9884H23.4076C24.4523 44.9884 24.9747 44.9884 25.3738 45.1917C25.7248 45.3705 26.0102 45.6559 26.189 46.0069C26.3924 46.406 26.3924 46.9284 26.3924 47.9732V56.9276C26.3924 57.9724 26.3924 58.4948 26.189 58.8938C26.0102 59.2448 25.7248 59.5302 25.3738 59.7091C24.9747 59.9124 24.4523 59.9124 23.4076 59.9124H14.4531C13.4083 59.9124 12.886 59.9124 12.4869 59.7091C12.1359 59.5302 11.8505 59.2448 11.6716 58.8938C11.4683 58.4948 11.4683 57.9724 11.4683 56.9276V47.9732Z" stroke="#FCFCFC" stroke-width="5.51042" stroke-linecap="round" stroke-linejoin="round"/>
<path d="M7.7373 10.663C7.7373 9.61825 7.7373 9.09586 7.94063 8.69681C8.11949 8.34579 8.40487 8.0604 8.75589 7.88155C9.15494 7.67822 9.67733 7.67822 10.7221 7.67822L19.6765 7.67822C20.7213 7.67822 21.2437 7.67822 21.6428 7.88155C21.9938 8.0604 22.2792 8.34579 22.458 8.69681C22.6614 9.09586 22.6614 9.61825 22.6614 10.663V19.6175C22.6614 20.6622 22.6614 21.1846 22.458 21.5837C22.2792 21.9347 21.9938 22.2201 21.6428 22.3989C21.2437 22.6023 20.7213 22.6023 19.6765 22.6023H10.7221C9.67733 22.6023 9.15494 22.6023 8.75589 22.3989C8.40487 22.2201 8.11949 21.9347 7.94063 21.5837C7.7373 21.1846 7.7373 20.6622 7.7373 19.6175L7.7373 10.663Z" stroke="#FCFCFC" stroke-width="5.51042" stroke-linecap="round" stroke-linejoin="round"/>
</svg>
