<svg fill="none" height="119" viewBox="0 0 119 119" width="119" xmlns="http://www.w3.org/2000/svg"><g fill="#fff"><path d="m108.579 94.4202v9.4408h-11.8139c-8.2602-.006-16.3178-2.558-23.0753-7.309-6.7575-4.7506-11.8863-11.4687-14.688-19.2394-2.8035 7.7687-7.9331 14.4845-14.6905 19.2331-6.7573 4.7483-14.8139 7.2993-23.0729 7.3043h-11.81347v-9.4298h11.80637c7.7306.0012 15.1767-2.9162 20.8488-8.1688 5.6721-5.2525 9.152-12.4529 9.7436-20.1608h14.3419c.5916 7.7079 4.0716 14.9083 9.7437 20.1608 5.6721 5.2526 13.1181 8.17 20.8487 8.1688z"/><path d="m118.005 63.7285c.002 1.4379-.141 2.8723-.428 4.2813-1.015 4.9053-3.731 9.2943-7.667 12.3921-3.937 3.0977-8.841 4.705-13.8476 4.5381-5.0065-.1669-9.793-2.0972-13.5145-5.4503-3.7214-3.353-6.1386-7.9131-6.8246-12.8751-.5925-4.2564.1264-8.5923 2.0609-12.4296.5354-1.0726 1.1634-2.0964 1.8769-3.0596.0673-.0886.1416-.1806.216-.2833 3.3112-4.4659 5.0944-9.8802 5.0852-15.4397 0-6.8851-2.7352-13.4883-7.6037-18.3568-4.8685-4.8686-11.4717-7.60371-18.3569-7.60371-6.8851 0-13.4883 2.73511-18.3569 7.60371-4.8685 4.8685-7.6036 11.4717-7.6036 18.3568-.0139 5.5668 1.7696 10.9892 5.0851 15.4609.0744.1027.1488.1948.2161.2833.7135.9633 1.3415 1.9871 1.8768 3.0596 1.3623 2.7038 2.1311 5.6675 2.2548 8.6926s-.4006 6.0417-1.5376 8.8477c-1.1371 2.8059-2.8607 5.3365-5.0554 7.4221-2.1946 2.0857-4.8097 3.6782-7.6699 4.6709-2.8603.9927-5.8996 1.3626-8.9145 1.0851-3.0149-.2776-5.9356-1.1963-8.5665-2.6945-2.6309-1.4983-4.91123-3.5415-6.68821-5.9927-1.77698-2.4513-3.00957-5.2541-3.615179-8.2205-.700557-3.4483-.536521-7.0163.477464-10.3858 1.013985-3.3694 2.846375-6.4354 5.333645-8.9244l2.76214 2.7657 3.89534 3.913c-1.5967 1.5975-2.7013 3.6197-3.18263 5.8264-.48138 2.2067-.3193 4.5052.46703 6.6225.7862 2.1173 2.1637 3.9644 3.9687 5.322 1.805 1.3577 3.9618 2.1687 6.2141 2.3368 2.2523.1682 4.5056-.3137 6.4922-1.3883 1.9865-1.0745 3.623-2.6967 4.7149-4.6738s1.5934-4.2261 1.445-6.4798-.9405-4.4174-2.2823-6.2343c-.0425-.0495-.0744-.0956-.1098-.1416-2.9884-3.998-5.0945-8.5845-6.1794-13.4566-.0318-.131-.0566-.2691-.0885-.4037-.505-2.4036-.7613-4.8529-.7649-7.309 0-.7602.0248-1.5157.0744-2.2664.1962-3.1736.8241-6.3057 1.8662-9.3098 2.4082-6.9582 6.9256-12.9926 12.9234-17.26359 5.9978-4.27102 13.1778-6.56621 20.5409-6.56621s14.5432 2.29519 20.541 6.56621c5.9978 4.27099 10.5151 10.30539 12.9234 17.26359 1.0449 3.0096 1.6739 6.1477 1.8697 9.3275.0496.7508.0744 1.5062.0744 2.2664-.001 2.451-.2538 4.8955-.7543 7.2949-.0318.1345-.0566.2726-.0885.4037-1.0848 4.8721-3.191 9.4586-6.1794 13.4565-.0354.0461-.0673.0921-.1098.1417-1.343 1.8172-2.1361 3.9817-2.2852 6.2364s.3522 4.5048 1.4443 6.4829c1.092 1.9782 2.729 3.6014 4.7164 4.6766 1.9874 1.0753 4.2417 1.5574 6.495 1.3892 2.2534-.1682 4.4114-.9797 6.2164-2.3381 1.806-1.3584 3.184-3.2066 3.97-5.325s.948-4.418.466-6.6255c-.482-2.2076-1.588-4.2304-3.186-5.828l3.913-3.913 2.762-2.7657c1.976 1.97 3.542 4.311 4.61 6.8883 1.067 2.5773 1.615 5.3402 1.612 8.1299z"/><path d="m37.8886 118.012c.5868-5.189 3.0637-9.98 6.9579-13.459 3.8942-3.478 8.9331-5.4011 14.1548-5.4011s10.2605 1.9231 14.1548 5.4011c3.8942 3.479 6.3711 8.27 6.9578 13.459h-9.5612c-.5464-2.664-1.9957-5.058-4.103-6.777-2.1072-1.719-4.7432-2.657-7.4626-2.657s-5.3554.938-7.4626 2.657-3.5565 4.113-4.1029 6.777z"/><path d="m54.2817 51.9259c1.3026 0 2.3585-1.0559 2.3585-2.3585 0-1.3025-1.0559-2.3584-2.3585-2.3584-1.3025 0-2.3584 1.0559-2.3584 2.3584 0 1.3026 1.0559 2.3585 2.3584 2.3585z"/><path d="m63.721 51.9259c1.3025 0 2.3584-1.0559 2.3584-2.3585 0-1.3025-1.0559-2.3584-2.3584-2.3584-1.3026 0-2.3585 1.0559-2.3585 2.3584 0 1.3026 1.0559 2.3585 2.3585 2.3585z"/></g></svg>