<svg fill="none" height="61" viewBox="0 0 61 61" width="61" xmlns="http://www.w3.org/2000/svg"><path d="m58.0943 30.3101c0 15.3448-12.4394 27.7843-27.7842 27.7843m27.7842-27.7843c0-15.3448-12.4394-27.78422-27.7842-27.78422m27.7842 27.78422h-55.56847m27.78427 27.7843c-15.3448 0-27.78427-12.4395-27.78427-27.7843m27.78427 27.7843s-10.1034-5.5569-10.1034-27.7843c0-22.22737 10.1034-27.78422 10.1034-27.78422m0 55.56852s10.1033-5.5569 10.1033-27.7843c0-22.22737-10.1033-27.78422-10.1033-27.78422m-27.78427 27.78422c0-15.3448 12.43947-27.78422 27.78427-27.78422" stroke="#a524ff" stroke-width="5.05168"/></svg>