<svg width="35" height="35" viewBox="0 0 35 35" fill="none" xmlns="http://www.w3.org/2000/svg">
<path d="M29.6291 6.37259C27.3983 5.34905 25.0061 4.59491 22.5049 4.16295C22.4594 4.15461 22.4139 4.17545 22.3904 4.21709C22.0827 4.7643 21.742 5.47811 21.5033 6.0392C18.8132 5.63643 16.1368 5.63643 13.5018 6.0392C13.2631 5.46567 12.9099 4.7643 12.6009 4.21709C12.5774 4.17682 12.5319 4.15597 12.4864 4.16295C9.9866 4.59347 7.59444 5.34761 5.36223 6.37259C5.34288 6.38093 5.32634 6.39481 5.31533 6.41286C0.777913 13.1917 -0.465134 19.804 0.144632 26.3342C0.147366 26.3661 0.165344 26.3967 0.190159 26.4161C3.18382 28.6146 6.08376 29.9493 8.92977 30.834C8.9753 30.8478 9.02356 30.8312 9.05254 30.7937C9.72574 29.8743 10.3259 28.9049 10.8404 27.8855C10.8708 27.8258 10.8418 27.755 10.7797 27.7313C9.8278 27.3703 8.92143 26.93 8.0495 26.4301C7.98053 26.3898 7.97499 26.2911 8.0385 26.2439C8.22198 26.1064 8.40552 25.9634 8.58073 25.8189C8.61244 25.7925 8.6566 25.787 8.69386 25.8036C14.4218 28.4188 20.6231 28.4188 26.2834 25.8036C26.3207 25.7856 26.3648 25.7912 26.3979 25.8175C26.5732 25.9619 26.7567 26.1064 26.9415 26.2438C27.0049 26.2911 27.0008 26.3897 26.9319 26.43C26.0599 26.9397 25.1536 27.3702 24.2003 27.7299C24.1382 27.7535 24.1106 27.8257 24.141 27.8854C24.6666 28.9034 25.2668 29.8728 25.9275 30.7923C25.9552 30.8312 26.0048 30.8478 26.0503 30.8339C28.9101 29.9493 31.8101 28.6145 34.8037 26.416C34.83 26.3966 34.8465 26.3674 34.8493 26.3355C35.5791 18.7858 33.6269 12.2278 29.6744 6.41416C29.6649 6.39481 29.6483 6.38093 29.6291 6.37259ZM11.6959 22.358C9.97143 22.358 8.55044 20.7747 8.55044 18.8303C8.55044 16.8859 9.94381 15.3027 11.6959 15.3027C13.4617 15.3027 14.869 16.8999 14.8413 18.8303C14.8413 20.7747 13.4479 22.358 11.6959 22.358ZM23.3257 22.358C21.6013 22.358 20.1803 20.7747 20.1803 18.8303C20.1803 16.8859 21.5737 15.3027 23.3257 15.3027C25.0916 15.3027 26.4987 16.8999 26.4712 18.8303C26.4712 20.7747 25.0916 22.358 23.3257 22.358Z" fill="white"/>
</svg>
