<svg fill="none" height="61" viewBox="0 0 61 61" width="61" xmlns="http://www.w3.org/2000/svg"><path d="m32.8359 50.5169v-5.0517m0 5.0517h-30.31007v-5.0517c0-8.3699 6.78515-15.155 15.15507-15.155 8.3699 0 15.155 6.7851 15.155 15.155m0 5.0517h22.7326v-1.2629c0-7.6724-6.2197-13.8921-13.8921-13.8921-3.9316 0-7.4816 1.6331-10.0089 4.258.7527 1.7988 1.1684 3.7735 1.1684 5.8453m-7.5775-30.31c0 4.1849-3.3926 7.5775-7.5775 7.5775-4.185 0-7.5775-3.3926-7.5775-7.5775 0-4.185 3.3925-7.57756 7.5775-7.57756 4.1849 0 7.5775 3.39256 7.5775 7.57756zm22.7325 6.3146c0 3.4874-2.8271 6.3146-6.3145 6.3146-3.4875 0-6.3146-2.8272-6.3146-6.3146 0-3.4875 2.8271-6.3146 6.3146-6.3146 3.4874 0 6.3145 2.8271 6.3145 6.3146z" stroke="#a524ff" stroke-width="5.05168"/></svg>