<svg width="175" height="175" viewBox="0 0 175 175" fill="none" xmlns="http://www.w3.org/2000/svg">
<path d="M87.4998 109.375L65.6248 87.5M87.4998 109.375C97.6852 105.501 107.456 100.616 116.667 94.7917M87.4998 109.375V145.833C87.4998 145.833 109.594 141.823 116.667 131.25C124.542 119.438 116.667 94.7917 116.667 94.7917M65.6248 87.5C69.5051 77.4334 74.3909 67.7838 80.2082 58.6979C88.7043 45.1135 100.535 33.9285 114.574 26.2069C128.613 18.4854 144.394 14.484 160.417 14.5833C160.417 34.4167 154.729 69.2708 116.667 94.7917M65.6248 87.5H29.1665C29.1665 87.5 33.1769 65.4063 43.7498 58.3334C55.5623 50.4583 80.2082 58.3334 80.2082 58.3334M32.8123 120.313C21.8748 129.5 18.229 156.771 18.229 156.771C18.229 156.771 45.4998 153.125 54.6873 142.188C59.8644 136.063 59.7915 126.656 54.0311 120.969C51.1969 118.264 47.4634 116.7 43.5473 116.579C39.6312 116.458 35.8083 117.788 32.8123 120.313Z" stroke="white" stroke-width="4" stroke-linecap="round" stroke-linejoin="round"/>
</svg>
