<svg fill="none" height="120" viewBox="0 0 119 120" width="119" xmlns="http://www.w3.org/2000/svg"><g fill="#fff"><path d="m109.494 95.2164v9.5206h-11.9126c-8.3299-.006-16.4555-2.58-23.2699-7.3708-6.8144-4.7907-11.9865-11.5655-14.8119-19.4016-2.8271 7.8341-7.9999 14.6066-14.8142 19.3952-6.8143 4.7882-14.9389 7.3612-23.2675 7.3662h-11.91302v-9.5096h11.90592c7.7957.0012 15.3046-2.9408 21.0245-8.2376 5.7199-5.2969 9.2292-12.5579 9.8258-20.3309h14.4628c.5966 7.773 4.1059 15.034 9.8258 20.3309 5.7199 5.2968 13.2287 8.2388 21.0245 8.2376z"/><path d="m119 64.2657c.002 1.4501-.143 2.8966-.432 4.3174-1.024 4.9467-3.762 9.3727-7.732 12.4965-3.969 3.1239-8.915 4.7448-13.9639 4.5765-5.0486-.1683-9.8754-2.115-13.6283-5.4963-3.7528-3.3813-6.1904-7.9798-6.8822-12.9837-.5975-4.2922.1275-8.6646 2.0784-12.5344.5398-1.0816 1.1731-2.114 1.8926-3.0853.0679-.0893.1429-.1822.2179-.2857 3.339-4.5035 5.1373-9.9635 5.128-15.5698 0-6.9432-2.7582-13.6021-7.6678-18.5116-4.9096-4.9096-11.5684-7.66781-18.5116-7.66781s-13.602 2.75821-18.5116 7.66781c-4.9096 4.9095-7.6678 11.5684-7.6678 18.5116-.014 5.6136 1.7846 11.0818 5.128 15.5912.075.1036.15.1964.2179.2857.7195.9714 1.3528 2.0038 1.8926 3.0854 1.3739 2.7266 2.1491 5.7152 2.2738 8.7658.1248 3.0506-.4039 6.0926-1.5505 8.9223-1.1467 2.8296-2.8848 5.3815-5.098 7.4847s-4.8503 3.7092-7.7346 4.7102c-2.8844 1.0011-5.9494 1.3742-8.9896 1.0943-3.0403-.2799-5.9856-1.2064-8.6387-2.7172-2.65312-1.5109-4.95268-3.5713-6.74464-6.0433-1.79196-2.4719-3.03494-5.2983-3.645652-8.2897-.706462-3.4774-.541044-7.0755.481489-10.4734 1.022533-3.3978 2.870373-6.4897 5.378613-8.9996l2.78542 2.789 3.92817 3.946c-1.6101 1.611-2.724 3.6502-3.20946 5.8755-.48543 2.2253-.32198 4.5432.47096 6.6783.7929 2.1352 2.1819 3.9979 4.0022 5.3669 1.8202 1.3691 3.9951 2.187 6.2665 2.3565 2.2713.1696 4.5435-.3163 6.5468-1.4 2.0034-1.0836 3.6536-2.7195 4.7547-4.7132 1.1011-1.9938 1.6069-4.2617 1.4572-6.5344-.1496-2.2727-.9484-4.4547-2.3015-6.2869-.0429-.0499-.075-.0964-.1107-.1428-3.0136-4.0317-5.1375-8.6568-6.2315-13.57-.0321-.1321-.0571-.2714-.0893-.4071-.5093-2.4239-.7678-4.8938-.7713-7.3707 0-.7665.025-1.5284.075-2.2854.1979-3.2004.831-6.3589 1.8819-9.3883 2.4286-7.0168 6.984-13.1021 13.0323-17.40914 6.0484-4.30702 13.289-6.62156 20.7142-6.62156 7.4251 0 14.6657 2.31454 20.7141 6.62156 6.0483 4.30704 10.6037 10.39234 13.0323 17.40914 1.0537 3.0349 1.6881 6.1995 1.8855 9.4061.05.7571.075 1.5189.075 2.2855-.001 2.4717-.2559 4.9368-.7606 7.3564-.0322.1357-.0572.2749-.0893.4071-1.094 4.9131-3.2179 9.5383-6.2315 13.57-.0357.0464-.0678.0928-.1107.1428-1.3543 1.8325-2.1542 4.0153-2.3045 6.289s.3552 4.5427 1.4565 6.5376c1.1012 1.9949 2.752 3.6317 4.7562 4.716 2.0041 1.0843 4.2774 1.5705 6.5497 1.4009s4.4483-.988 6.2693-2.3578 3.21-3.2336 4.003-5.3699c.793-2.1362.956-4.4552.47-6.6814s-1.601-4.266-3.213-5.8771l3.946-3.946 2.786-2.789c1.991 1.9867 3.571 4.3473 4.648 6.9464 1.077 2.599 1.629 5.3852 1.626 8.1984z"/><path d="m38.208 119.006c.5917-5.232 3.0895-10.064 7.0165-13.572 3.9271-3.508 9.0084-5.4467 14.2741-5.4467s10.3471 1.9387 14.2741 5.4467c3.9271 3.508 6.4248 8.34 7.0165 13.572h-9.6418c-.551-2.686-2.0125-5.1-4.1375-6.834-2.125-1.733-4.7833-2.68-7.5256-2.68s-5.4005.947-7.5255 2.68c-2.125 1.734-3.5865 4.148-4.1375 6.834z"/><path d="m54.7397 52.3641c1.3135 0 2.3783-1.0648 2.3783-2.3784 0-1.3135-1.0648-2.3783-2.3783-2.3783-1.3136 0-2.3784 1.0648-2.3784 2.3783 0 1.3136 1.0648 2.3784 2.3784 2.3784z"/><path d="m64.2582 52.3641c1.3135 0 2.3783-1.0648 2.3783-2.3784 0-1.3135-1.0648-2.3783-2.3783-2.3783s-2.3783 1.0648-2.3783 2.3783c0 1.3136 1.0648 2.3784 2.3783 2.3784z"/></g></svg>