<svg fill="none" height="60" viewBox="0 0 60 60" width="60" xmlns="http://www.w3.org/2000/svg"><circle cx="30" cy="30" fill="#8247e5" r="30"/><path clip-rule="evenodd" d="m20.0287 13.2517c.6041-.3356 1.3385-.3356 1.9426 0l9 5c.6349.3527 1.0287 1.022 1.0287 1.7483v3.2517l-4 2.2483v-4.3232l-7-3.8889-7 3.8889v7.6464l7 3.8889 17.0287-9.4604c.6041-.3356 1.3385-.3356 1.9426 0l9 5c.6349.3527 1.0287 1.022 1.0287 1.7483v10c0 .7263-.3938 1.3956-1.0287 1.7483l-9 5c-.6041.3356-1.3385.3356-1.9426 0l-9-5c-.6349-.3527-1.0287-1.022-1.0287-1.7483v-3.2517l4-2.2483v4.3232l7 3.8889 7-3.8889v-7.6464l-7-3.8889-17.0287 9.4604c-.6041.3356-1.3385.3356-1.9426 0l-9-5c-.6349-.3527-1.0287-1.022-1.0287-1.7483v-10c0-.7263.3938-1.3956 1.0287-1.7483z" fill="#fff" fill-rule="evenodd"/></svg>