<?xml version="1.0" standalone="no"?>
<!DOCTYPE svg PUBLIC "-//W3C//DTD SVG 20010904//EN"
 "http://www.w3.org/TR/2001/REC-SVG-20010904/DTD/svg10.dtd">
<svg version="1.0" xmlns="http://www.w3.org/2000/svg"
 width="512.000000pt" height="512.000000pt" viewBox="0 0 512.000000 512.000000"
 preserveAspectRatio="xMidYMid meet">

<g transform="translate(0.000000,512.000000) scale(0.100000,-0.100000)"
fill="#a524ff" stroke="none">
<path d="M2416 5110 c-445 -56 -823 -322 -1019 -715 -92 -185 -130 -354 -130
-575 0 -279 64 -492 221 -730 72 -109 233 -270 343 -343 90 -60 244 -137 317
-158 l42 -12 0 -184 c0 -170 1 -184 20 -203 11 -11 33 -20 50 -20 17 0 39 9
50 20 18 18 20 33 20 185 l0 165 73 -7 c39 -5 110 -8 157 -8 47 0 118 3 158 8
l72 7 0 -964 0 -965 26 -20 c34 -26 54 -26 88 0 l26 20 0 983 0 983 43 12 c72
21 226 98 316 158 110 73 271 234 343 343 157 238 221 451 221 730 0 235 -39
398 -146 604 -63 120 -94 156 -135 156 -34 0 -72 -38 -72 -72 0 -10 22 -56 49
-101 103 -171 150 -331 158 -542 10 -260 -53 -482 -199 -699 -53 -79 -215
-241 -294 -294 -402 -270 -906 -270 -1308 0 -79 53 -241 215 -294 294 -270
402 -270 905 -2 1305 55 81 216 243 296 297 217 146 439 209 699 199 260 -10
476 -91 680 -253 40 -32 78 -54 92 -54 32 0 73 42 73 76 0 65 -249 233 -458
308 -160 57 -414 87 -576 66z"/>
<path d="M2432 4810 c-410 -58 -733 -346 -839 -749 -22 -82 -26 -118 -26 -241
0 -123 4 -159 26 -241 96 -364 362 -630 726 -726 82 -22 118 -26 241 -26 123
0 159 4 241 26 300 79 538 277 665 553 64 137 87 247 87 414 0 123 -4 159 -26
241 -96 364 -366 634 -724 725 -107 27 -273 38 -371 24z m358 -170 c284 -82
509 -309 592 -596 33 -114 33 -334 0 -448 -67 -232 -222 -422 -433 -531 -138
-71 -218 -90 -389 -90 -171 0 -251 19 -389 90 -211 109 -366 299 -433 531 -33
114 -33 334 0 448 93 323 351 554 692 620 14 2 84 3 155 1 96 -2 150 -9 205
-25z"/>
<path d="M2429 4597 c-102 -43 -163 -101 -208 -197 -21 -45 -27 -75 -31 -165
l-5 -110 -48 -7 c-58 -8 -108 -43 -131 -92 -15 -32 -16 -75 -14 -389 l3 -354
27 -35 c53 -69 46 -68 538 -68 492 0 485 -1 538 68 l27 35 3 354 c2 314 1 357
-14 389 -23 49 -73 84 -131 92 l-48 7 -5 110 c-4 99 -8 117 -37 176 -39 79
-102 140 -181 177 -82 38 -204 42 -283 9z m198 -132 c108 -32 167 -132 161
-272 l-3 -68 -225 0 -225 0 -3 68 c-6 136 54 240 158 272 59 18 76 18 137 0z
m351 -497 c17 -17 17 -619 0 -636 -17 -17 -819 -17 -836 0 -17 17 -17 619 0
636 17 17 819 17 836 0z"/>
<path d="M2490 3935 c-116 -36 -182 -179 -134 -293 17 -43 67 -97 107 -118 25
-13 27 -19 27 -74 0 -51 3 -61 26 -79 15 -12 34 -21 44 -21 10 0 29 9 44 21
23 18 26 28 26 79 0 55 2 61 28 74 39 21 89 75 106 118 49 116 -18 258 -138
293 -60 18 -77 18 -136 0z m121 -154 c52 -42 17 -131 -51 -131 -44 0 -74 31
-74 75 0 44 30 75 74 75 15 0 38 -8 51 -19z"/>
<path d="M2235 1990 c-43 -17 -45 -26 -47 -301 l-3 -264 -205 -5 c-168 -4
-211 -8 -236 -22 -92 -50 -144 -126 -151 -221 -9 -114 35 -202 132 -262 l48
-30 206 -5 206 -5 3 -87 3 -87 -203 -3 -203 -3 -54 -30 c-94 -52 -141 -133
-141 -244 0 -104 63 -197 165 -243 45 -20 69 -23 243 -26 l192 -4 0 -53 c0
-46 4 -57 26 -74 26 -20 38 -21 344 -21 306 0 318 1 344 21 l26 20 0 155 c0
141 -2 156 -20 174 -11 11 -33 20 -50 20 -56 0 -70 -27 -70 -140 l0 -100 -230
0 -230 0 0 903 c0 848 -1 905 -17 919 -24 21 -54 28 -78 18z m-50 -840 l0
-125 -170 -3 c-146 -2 -175 0 -204 15 -101 52 -101 174 0 226 29 15 58 17 204
15 l170 -3 0 -125z m5 -725 l0 -125 -176 0 c-140 0 -183 3 -209 16 -83 39 -95
148 -24 209 30 25 32 25 220 25 l189 0 0 -125z"/>
</g>
</svg>
