<svg width="61" height="61" viewBox="0 0 61 61" fill="none" xmlns="http://www.w3.org/2000/svg">
<g clip-path="url(#clip0_1_2670)">
<path d="M27.7842 27.7843C26.3893 27.7843 25.2584 28.9152 25.2584 30.3102C25.2584 31.7051 26.3893 32.836 27.7842 32.836V27.7843ZM32.8359 32.836C34.2309 32.836 35.3618 31.7051 35.3618 30.3102C35.3618 28.9152 34.2309 27.7843 32.8359 27.7843V32.836ZM10.1034 17.681H50.5168V12.6293H10.1034V17.681ZM55.5685 22.7326V47.991H60.6202V22.7326H55.5685ZM50.5168 53.0427H10.1034V58.0944H50.5168V53.0427ZM5.05168 47.991V22.7326H9.53674e-07V47.991H5.05168ZM10.1034 53.0427C7.31339 53.0427 5.05168 50.781 5.05168 47.991H9.53674e-07C9.53674e-07 53.571 4.52343 58.0944 10.1034 58.0944V53.0427ZM55.5685 47.991C55.5685 50.781 53.3068 53.0427 50.5168 53.0427V58.0944C56.0967 58.0944 60.6202 53.571 60.6202 47.991H55.5685ZM50.5168 17.681C53.3068 17.681 55.5685 19.9427 55.5685 22.7326H60.6202C60.6202 17.1527 56.0967 12.6293 50.5168 12.6293V17.681ZM10.1034 12.6293C4.52343 12.6293 9.53674e-07 17.1527 9.53674e-07 22.7326H5.05168C5.05168 19.9427 7.31339 17.681 10.1034 17.681V12.6293ZM25.2584 7.5776H35.3618V2.52592H25.2584V7.5776ZM37.8876 10.1034V15.1551H42.9393V10.1034H37.8876ZM22.7326 15.1551V10.1034H17.6809V15.1551H22.7326ZM35.3618 7.5776C36.7567 7.5776 37.8876 8.70845 37.8876 10.1034H42.9393C42.9393 5.91849 39.5467 2.52592 35.3618 2.52592V7.5776ZM25.2584 2.52592C21.0735 2.52592 17.6809 5.91849 17.6809 10.1034H22.7326C22.7326 8.70845 23.8634 7.5776 25.2584 7.5776V2.52592ZM2.52584 35.3618C1.20479 37.5147 1.20542 37.5151 1.2061 37.5155C1.20639 37.5156 1.20712 37.5161 1.2077 37.5165C1.20886 37.5172 1.21021 37.518 1.21175 37.5189C1.21483 37.5208 1.21867 37.5231 1.22326 37.5259C1.23244 37.5315 1.24463 37.5389 1.2598 37.548C1.29014 37.5663 1.33238 37.5915 1.38625 37.6232C1.49399 37.6867 1.64829 37.7762 1.84687 37.8881C2.24394 38.1118 2.81865 38.4251 3.5528 38.7979C5.02002 39.543 7.13027 40.5291 9.73726 41.5136C14.936 43.4767 22.1939 45.4652 30.3101 45.4652V40.4135C22.9906 40.4135 16.3563 38.6132 11.5219 36.7876C9.11229 35.8777 7.17067 34.9694 5.84017 34.2937C5.17546 33.9562 4.66485 33.6775 4.32631 33.4868C4.15709 33.3914 4.03101 33.3182 3.95032 33.2706C3.90998 33.2469 3.88101 33.2296 3.86367 33.2191C3.855 33.2139 3.84925 33.2104 3.84644 33.2087C3.84504 33.2079 3.84437 33.2075 3.84444 33.2075C3.84448 33.2075 3.8447 33.2077 3.84511 33.2079C3.84532 33.208 3.84576 33.2083 3.84586 33.2084C3.84636 33.2087 3.8469 33.209 2.52584 35.3618ZM30.3101 45.4652C38.4263 45.4652 45.6841 43.4767 50.8829 41.5136C53.4899 40.5291 55.6001 39.543 57.0674 38.7979C57.8015 38.4251 58.3762 38.1118 58.7733 37.8881C58.9719 37.7762 59.1262 37.6867 59.2339 37.6232C59.2878 37.5915 59.33 37.5663 59.3604 37.548C59.3755 37.5389 59.3877 37.5315 59.3969 37.5259C59.4015 37.5231 59.4053 37.5208 59.4084 37.5189C59.4099 37.518 59.4113 37.5172 59.4125 37.5165C59.413 37.5161 59.4138 37.5156 59.4141 37.5155C59.4147 37.5151 59.4154 37.5147 58.0943 35.3618C56.7733 33.209 56.7738 33.2087 56.7743 33.2084C56.7744 33.2083 56.7748 33.208 56.775 33.2079C56.7755 33.2077 56.7757 33.2075 56.7757 33.2075C56.7758 33.2075 56.7751 33.2079 56.7737 33.2087C56.7709 33.2104 56.7652 33.2139 56.7565 33.2191C56.7392 33.2296 56.7102 33.2469 56.6698 33.2706C56.5891 33.3182 56.4631 33.3914 56.2938 33.4868C55.9553 33.6775 55.4447 33.9562 54.78 34.2937C53.4495 34.9694 51.5079 35.8777 49.0983 36.7876C44.2638 38.6132 37.6296 40.4135 30.3101 40.4135V45.4652ZM27.7842 32.836H32.8359V27.7843H27.7842V32.836Z" fill="#A524FF"/>
</g>
<defs>
<clipPath id="clip0_1_2670">
<rect width="60.6202" height="60.6202" fill="white"/>
</clipPath>
</defs>
</svg>
