<svg width="207" height="287" viewBox="0 0 207 287" fill="none" xmlns="http://www.w3.org/2000/svg">
<circle cx="91.3181" cy="138.803" r="10.5813" stroke="#FCFCFC"/>
<path d="M85.4868 114.145C88.1262 109.74 94.5088 109.74 97.1482 114.145V114.145C98.6874 116.713 101.726 117.972 104.631 117.244V117.244C109.612 115.996 114.125 120.509 112.877 125.49V125.49C112.149 128.395 113.408 131.434 115.977 132.973V132.973C120.381 135.612 120.381 141.995 115.977 144.634V144.634C113.408 146.174 112.149 149.212 112.877 152.117V152.117C114.125 157.098 109.612 161.611 104.631 160.363V160.363C101.726 159.635 98.6874 160.894 97.1482 163.463V163.463C94.5088 167.867 88.1262 167.867 85.4868 163.463V163.463C83.9476 160.894 80.9086 159.635 78.0038 160.363V160.363C73.023 161.611 68.5098 157.098 69.758 152.117V152.117C70.4859 149.212 69.2271 146.174 66.6584 144.634V144.634C62.2538 141.995 62.2538 135.612 66.6584 132.973V132.973C69.2271 131.434 70.4859 128.395 69.758 125.49V125.49C68.5098 120.509 73.023 115.996 78.0038 117.244V117.244C80.9086 117.972 83.9476 116.713 85.4868 114.145V114.145Z" stroke="#FCFCFC"/>
<circle cx="137.777" cy="103.207" r="7.99744" transform="rotate(-8.03091 137.777 103.207)" stroke="#FCFCFC"/>
<path d="M130.809 85.3685C132.319 81.7935 137.096 81.1195 139.536 84.1372V84.1372C140.959 85.8971 143.367 86.5182 145.464 85.6667V85.6667C149.059 84.2067 152.914 87.1078 152.505 90.9672V90.9672C152.267 93.218 153.53 95.3594 155.615 96.2401V96.2401C159.19 97.7504 159.864 102.527 156.847 104.967V104.967C155.087 106.391 154.466 108.798 155.317 110.895V110.895C156.777 114.491 153.876 118.345 150.017 117.937V117.937C147.766 117.699 145.624 118.962 144.744 121.047V121.047C143.233 124.622 138.457 125.296 136.016 122.278V122.278C134.593 120.518 132.186 119.897 130.089 120.748V120.748C126.493 122.209 122.639 119.307 123.047 115.448V115.448C123.285 113.197 122.022 111.056 119.937 110.175V110.175C116.362 108.665 115.688 103.888 118.706 101.448V101.448C120.466 100.025 121.087 97.6173 120.235 95.5202V95.5202C118.775 91.9244 121.676 88.0702 125.536 88.4784V88.4784C127.787 88.7164 129.928 87.4535 130.809 85.3685V85.3685Z" stroke="#FCFCFC"/>
<mask id="path-5-inside-1_207_31481" fill="white">
<path fill-rule="evenodd" clip-rule="evenodd" d="M0 8C0 3.58172 3.58172 0 8 0H198.988C203.406 0 206.988 3.58173 206.988 8.00001L206.988 220.033L206.988 233.514L206.988 279C206.988 283.418 203.406 287 198.988 287H172.808C168.389 287 164.808 283.418 164.808 279V241.514C164.808 237.095 161.226 233.514 156.808 233.514H50.1803C45.762 233.514 42.1803 237.095 42.1803 241.514V279C42.1803 283.418 38.5986 287 34.1803 287H8C3.58172 287 0 283.418 0 279V233.514V220.033V8Z"/>
</mask>
<path d="M206.988 220.033H205.988H206.988ZM206.988 233.514H207.988H206.988ZM206.988 279H207.988H206.988ZM206.988 8.00001H207.988H206.988ZM198.988 -1H8V1H198.988V-1ZM207.988 220.033L207.988 8.00001H205.988L205.988 220.033H207.988ZM205.988 220.033L205.988 233.514H207.988L207.988 220.033H205.988ZM205.988 233.514L205.988 279H207.988L207.988 233.514H205.988ZM198.988 286H172.808V288H198.988V286ZM165.808 279V241.514H163.808V279H165.808ZM50.1803 234.514H156.808V232.514H50.1803V234.514ZM43.1803 279V241.514H41.1803V279H43.1803ZM8 288H34.1803V286H8V288ZM-1 233.514V279H1V233.514H-1ZM-1 220.033V233.514H1V220.033H-1ZM-1 8V220.033H1V8H-1ZM8 286C4.13401 286 1 282.866 1 279H-1C-1 283.971 3.02944 288 8 288V286ZM41.1803 279C41.1803 282.866 38.0463 286 34.1803 286V288C39.1509 288 43.1803 283.971 43.1803 279H41.1803ZM50.1803 232.514C45.2097 232.514 41.1803 236.543 41.1803 241.514H43.1803C43.1803 237.648 46.3143 234.514 50.1803 234.514V232.514ZM205.988 279C205.988 282.866 202.854 286 198.988 286V288C203.958 288 207.988 283.971 207.988 279H205.988ZM165.808 241.514C165.808 236.543 161.778 232.514 156.808 232.514V234.514C160.674 234.514 163.808 237.648 163.808 241.514H165.808ZM8 -1C3.02944 -1 -1 3.02944 -1 8H1C1 4.13401 4.13401 1 8 1V-1ZM172.808 286C168.942 286 165.808 282.866 165.808 279H163.808C163.808 283.971 167.837 288 172.808 288V286ZM198.988 1C202.854 1 205.988 4.13402 205.988 8.00001H207.988C207.988 3.02945 203.958 -1 198.988 -1V1Z" fill="white" mask="url(#path-5-inside-1_207_31481)"/>
</svg>
