<?xml version="1.0" standalone="no"?>
<!DOCTYPE svg PUBLIC "-//W3C//DTD SVG 20010904//EN"
 "http://www.w3.org/TR/2001/REC-SVG-20010904/DTD/svg10.dtd">
<svg version="1.0" xmlns="http://www.w3.org/2000/svg"
 width="512.000000pt" height="512.000000pt" viewBox="0 0 512.000000 512.000000"
 preserveAspectRatio="xMidYMid meet">

<g transform="translate(0.000000,512.000000) scale(0.100000,-0.100000)"
fill="#a524ff" stroke="none">
<path d="M62 5020 c-67 -41 -62 129 -62 -2255 0 -2354 -4 -2207 55 -2253 24
-19 40 -22 131 -22 l104 0 0 -97 c0 -80 4 -104 20 -130 38 -63 40 -63 455 -63
362 0 376 1 395 20 25 25 26 71 3 99 -18 21 -25 21 -373 24 l-355 2 0 70 0 70
1466 5 c1447 5 1467 5 1489 25 42 38 45 54 50 283 l5 223 68 29 67 28 -2 -366
-3 -367 -1075 -2 -1075 -3 -18 -21 c-23 -28 -22 -74 3 -99 20 -20 29 -20 1131
-18 l1111 3 34 37 34 38 0 430 c0 236 3 430 8 430 4 0 48 -40 97 -90 l90 -90
0 -60 0 -60 375 -375 c402 -402 399 -400 477 -380 39 9 329 298 344 342 20 62
5 90 -124 221 -98 98 -126 122 -149 122 -38 0 -68 -32 -68 -72 0 -28 14 -47
97 -130 l98 -98 -120 -120 -120 -120 -327 327 c-181 181 -328 332 -328 338 0
6 52 62 115 125 l115 114 133 -132 c83 -82 141 -132 154 -132 36 0 73 38 73
74 0 28 -19 51 -153 184 l-153 152 -55 0 -54 0 -104 104 -103 103 27 43 c220
349 246 825 66 1198 l-41 83 26 9 c14 6 29 10 34 10 19 0 60 63 60 91 0 59
-27 89 -105 115 -153 51 -217 116 -280 283 -25 66 -32 75 -66 90 l-39 16 0
618 c0 673 2 654 -57 692 -20 13 -54 20 -125 23 l-98 5 -1 81 c0 102 -14 144
-58 173 l-34 23 -1626 0 c-1613 0 -1626 0 -1659 -20z m3228 -474 c0 -342 1
-354 21 -380 26 -33 77 -36 105 -5 17 19 19 41 22 235 l3 214 70 0 69 0 0
-654 0 -654 -67 28 -68 29 -5 264 c-5 242 -7 267 -24 286 -28 31 -79 28 -105
-5 -20 -25 -21 -39 -21 -262 l0 -235 -37 7 c-108 18 -233 28 -294 24 -58 -5
-71 -2 -85 13 -16 18 -37 19 -316 19 -285 0 -299 -1 -318 -20 -24 -24 -26 -67
-4 -95 13 -17 30 -21 127 -25 l112 -5 -93 -54 c-51 -30 -122 -79 -157 -108
l-64 -53 -786 0 -786 0 -24 -25 c-30 -29 -32 -64 -6 -96 l19 -24 721 -3 720
-2 -57 -88 c-32 -48 -73 -123 -92 -165 l-34 -77 -606 0 c-417 0 -617 -3 -639
-11 -53 -19 -66 -67 -30 -113 l20 -26 606 0 605 0 -6 -22 c-3 -13 -11 -62 -17
-110 l-12 -88 -585 0 -586 0 -23 -22 c-43 -40 -25 -101 35 -118 23 -6 242 -10
600 -10 443 0 562 -3 562 -12 1 -20 20 -148 26 -174 l6 -24 -607 -2 -607 -3
-19 -24 c-26 -32 -24 -67 6 -96 l24 -25 623 0 623 0 49 -103 c28 -56 52 -105
54 -109 2 -5 -42 -8 -97 -8 -115 0 -141 -13 -141 -72 0 -63 15 -68 190 -68
l156 0 54 -58 c30 -31 83 -81 118 -110 l63 -52 -846 0 -846 0 -24 -25 c-30
-29 -32 -64 -6 -96 l19 -24 1004 -5 1003 -5 99 -28 c145 -40 298 -53 432 -38
60 7 124 15 142 18 l32 5 0 -171 0 -171 -1570 0 -1570 0 0 2135 0 2135 1570 0
1570 0 0 -354z m-9 -1289 c53 -14 132 -42 175 -62 l79 -36 -40 -34 c-68 -58
-84 -61 -173 -32 -125 41 -190 51 -322 51 -251 -1 -471 -88 -648 -258 -144
-137 -223 -273 -279 -476 -27 -102 -25 -348 6 -460 94 -347 358 -605 711 -692
120 -30 311 -30 434 0 350 86 613 344 708 692 19 72 23 109 23 240 0 167 -17
255 -70 375 l-24 56 23 37 c13 20 35 47 48 60 l25 23 15 -24 c27 -40 78 -168
99 -246 96 -366 -1 -750 -261 -1033 -131 -143 -333 -264 -525 -314 -135 -35
-330 -43 -464 -20 -492 86 -857 479 -911 980 -61 559 336 1085 897 1191 121
23 351 14 474 -18z m467 -119 c46 -81 93 -129 166 -172 36 -21 66 -40 66 -42
0 -1 -20 -13 -44 -25 -69 -34 -137 -100 -180 -173 l-39 -67 -29 53 c-37 68
-109 142 -175 180 -29 16 -53 31 -53 33 0 1 26 18 58 38 71 44 144 120 174
181 12 25 23 46 24 46 1 0 16 -24 32 -52z m-557 -157 c34 -10 36 -14 35 -49
-1 -61 23 -86 114 -121 149 -57 211 -119 266 -270 33 -89 65 -115 130 -107 41
5 41 5 53 -34 24 -81 33 -206 21 -302 -52 -429 -415 -737 -844 -715 -131 7
-202 24 -312 77 -163 78 -289 203 -370 365 -63 129 -86 224 -86 365 0 387 261
710 642 795 74 17 291 14 351 -4z m851 -1708 c49 -48 88 -92 88 -98 0 -6 -25
-35 -55 -65 l-55 -55 -97 97 -96 96 54 55 c30 30 58 55 64 56 5 0 49 -38 97
-86z"/>
<path d="M1000 4390 c-11 -11 -20 -33 -20 -50 0 -17 9 -39 20 -50 20 -20 33
-20 720 -20 687 0 700 0 720 20 11 11 20 33 20 50 0 17 -9 39 -20 50 -20 20
-33 20 -720 20 -687 0 -700 0 -720 -20z"/>
<path d="M565 3815 c-14 -13 -25 -36 -25 -50 0 -14 11 -37 25 -50 l24 -25 325
0 c179 0 336 4 349 9 13 5 29 23 36 39 10 25 10 35 -3 60 -8 16 -26 32 -38 36
-13 3 -168 6 -346 6 l-323 0 -24 -25z"/>
<path d="M1446 3819 c-19 -15 -26 -30 -26 -54 0 -24 7 -39 26 -54 26 -21 34
-21 716 -21 l689 0 24 25 c32 31 32 69 0 100 l-24 25 -689 0 c-682 0 -690 0
-716 -21z"/>
<path d="M560 3450 c-27 -27 -26 -71 3 -98 l23 -22 736 0 737 0 20 26 c12 15
21 34 21 44 0 10 -9 29 -21 44 l-20 26 -740 0 c-726 0 -739 0 -759 -20z"/>
<path d="M562 1507 c-27 -29 -28 -71 -2 -97 19 -19 33 -20 503 -20 456 0 485
1 500 18 10 10 17 35 17 55 0 69 13 67 -520 67 l-477 0 -21 -23z"/>
<path d="M2600 2630 c-27 -27 -26 -81 1 -106 20 -18 41 -19 404 -19 363 0 384
1 404 19 27 25 28 79 1 106 -19 19 -33 20 -405 20 -372 0 -386 -1 -405 -20z"/>
<path d="M2505 2345 c-14 -13 -25 -31 -25 -40 0 -20 19 -57 34 -67 6 -4 227
-8 491 -8 264 0 485 4 491 8 15 10 34 47 34 67 0 9 -11 27 -25 40 l-24 25
-476 0 -476 0 -24 -25z"/>
<path d="M2501 2064 c-12 -15 -21 -34 -21 -44 0 -10 9 -29 21 -44 l20 -26 484
0 484 0 20 26 c12 15 21 34 21 44 0 10 -9 29 -21 44 l-20 26 -484 0 -484 0
-20 -26z"/>
<path d="M2725 1790 c-10 -11 -18 -34 -18 -50 0 -16 8 -39 18 -50 17 -19 30
-20 280 -20 250 0 263 1 280 20 26 29 24 79 -4 102 -21 16 -45 18 -281 18
-245 0 -258 -1 -275 -20z"/>
<path d="M4175 3625 c-19 -18 -25 -35 -25 -68 l0 -44 -51 -6 c-63 -8 -89 -29
-89 -74 0 -49 29 -73 90 -73 l50 0 0 -40 c0 -77 42 -118 101 -98 32 11 49 46
49 98 l0 40 48 0 c122 0 127 132 6 147 l-52 6 -5 50 c-7 82 -71 114 -122 62z"/>
</g>
</svg>
