<svg width="89" height="101" viewBox="0 0 89 101" fill="none" xmlns="http://www.w3.org/2000/svg">
<path d="M28.6263 42.5625L39.2096 53.1458L63.0221 29.3333M86.8346 98.125V28.275C86.8346 19.3842 86.8346 14.9387 85.1044 11.5429C83.5824 8.55583 81.1538 6.12726 78.1667 4.60527C74.7709 2.875 70.3255 2.875 61.4346 2.875H27.568C18.6771 2.875 14.2317 2.875 10.8359 4.60527C7.8488 6.12726 5.42023 8.55583 3.89824 11.5429C2.16797 14.9387 2.16797 19.3842 2.16797 28.275V98.125L16.7201 87.5417L29.9492 98.125L44.5013 87.5417L59.0534 98.125L72.2826 87.5417L86.8346 98.125Z" stroke="white" stroke-width="4" stroke-linecap="round" stroke-linejoin="round"/>
</svg>
