<svg width="100" height="100" viewBox="0 0 100 100" fill="none" xmlns="http://www.w3.org/2000/svg">
<path d="M74.4913 83.709C67.3727 88.881 58.7994 91.6667 50.0003 91.6667C41.2012 91.6667 32.6279 88.881 25.5092 83.709M68.2658 12.5502C76.1744 16.4075 82.6588 22.6695 86.7898 30.4387C90.9207 38.2078 92.4861 47.0854 91.2615 55.7989M8.73953 55.7985C7.51492 47.085 9.08027 38.2075 13.2112 30.4383C17.3422 22.6691 23.8266 16.4071 31.7352 12.5498M47.6433 27.357L27.3573 47.643C26.5323 48.468 26.1198 48.8805 25.9652 49.3562C25.8292 49.7746 25.8292 50.2254 25.9652 50.6438C26.1198 51.1195 26.5323 51.532 27.3573 52.357L47.6433 72.643C48.4683 73.468 48.8808 73.8805 49.3565 74.0351C49.7749 74.171 50.2257 74.171 50.6441 74.0351C51.1198 73.8805 51.5323 73.468 52.3573 72.643L72.6433 52.357C73.4683 51.532 73.8808 51.1195 74.0354 50.6438C74.1713 50.2254 74.1713 49.7746 74.0354 49.3562C73.8808 48.8805 73.4683 48.468 72.6433 47.643L52.3573 27.357C51.5323 26.532 51.1198 26.1195 50.6441 25.9649C50.2257 25.829 49.7749 25.829 49.3565 25.9649C48.8808 26.1195 48.4683 26.532 47.6433 27.357Z" stroke="white" stroke-width="4" stroke-linecap="round" stroke-linejoin="round"/>
</svg>
