<?xml version="1.0" standalone="no"?>
<!DOCTYPE svg PUBLIC "-//W3C//DTD SVG 20010904//EN"
 "http://www.w3.org/TR/2001/REC-SVG-20010904/DTD/svg10.dtd">
<svg version="1.0" xmlns="http://www.w3.org/2000/svg"
 width="512.000000pt" height="512.000000pt" viewBox="0 0 512.000000 512.000000"
 preserveAspectRatio="xMidYMid meet">

<g transform="translate(0.000000,512.000000) scale(0.100000,-0.100000)"
fill="#a524ff" stroke="none">
<path d="M2370 4965 c-297 -66 -533 -254 -657 -522 -118 -255 -113 -566 12
-813 132 -262 373 -442 670 -501 76 -15 254 -15 331 1 390 77 686 373 753 754
16 88 13 266 -5 354 -71 343 -322 613 -664 712 -98 29 -341 37 -440 15z m400
-165 c258 -73 467 -283 542 -547 32 -111 32 -295 0 -406 -77 -270 -278 -471
-548 -549 -63 -18 -104 -23 -204 -23 -149 0 -216 16 -345 79 -201 100 -344
273 -407 492 -32 112 -32 296 0 407 86 301 334 520 647 571 64 10 241 -3 315
-24z"/>
<path d="M2671 4145 c-117 -96 -214 -175 -215 -175 -1 0 -33 43 -71 95 -45 63
-77 98 -93 102 -60 15 -117 -40 -96 -94 6 -15 53 -85 104 -156 94 -129 115
-146 163 -133 21 6 504 395 519 419 16 24 8 68 -17 92 -47 48 -62 39 -294
-150z"/>
<path d="M784 3358 c-13 -6 -163 -255 -397 -661 -207 -359 -379 -660 -383
-670 -18 -49 7 -68 315 -246 210 -121 307 -171 329 -171 23 0 38 9 59 35 l29
35 159 -93 159 -94 1 -84 c0 -71 4 -93 28 -141 47 -96 140 -162 246 -175 l49
-6 7 -51 c19 -145 129 -256 273 -274 l57 -7 6 -56 c8 -77 41 -140 100 -193 60
-54 121 -76 210 -76 65 0 67 -1 72 -27 3 -16 19 -49 36 -75 53 -84 171 -133
267 -111 37 9 46 8 60 -8 9 -10 39 -30 67 -44 140 -69 313 1 363 148 10 31 12
32 85 38 42 3 94 14 120 26 99 45 171 141 185 249 l6 52 52 6 c143 18 256 132
273 275 l6 49 59 11 c111 19 188 75 240 173 33 62 33 203 0 268 -18 35 -20 46
-10 56 16 14 417 244 426 244 4 0 18 -21 32 -47 40 -75 67 -103 103 -103 21 0
119 51 328 171 308 178 333 197 315 246 -4 10 -176 311 -383 670 -405 703
-398 692 -461 664 -71 -33 -570 -326 -589 -348 -31 -33 -29 -56 13 -131 19
-36 31 -69 27 -73 -15 -15 -125 -49 -156 -49 -17 0 -188 52 -380 116 -335 111
-353 116 -416 112 -51 -4 -84 -14 -145 -45 l-79 -40 -106 55 c-97 49 -113 55
-174 55 -63 1 -74 -3 -212 -71 l-146 -72 -245 0 -244 0 20 40 c41 80 29 96
-157 203 -82 47 -215 124 -297 171 -83 47 -157 86 -165 85 -9 0 -26 -5 -37
-11z m276 -297 c132 -77 205 -124 204 -134 -1 -12 -547 -969 -633 -1109 l-16
-27 -210 121 c-116 66 -212 122 -214 124 -4 4 652 1144 659 1144 3 0 97 -54
210 -119z m3544 -451 c181 -314 327 -572 325 -574 -2 -2 -98 -58 -214 -124
l-210 -121 -16 27 c-82 133 -632 1098 -633 1109 -1 10 75 59 204 134 113 65
207 119 210 119 3 0 153 -257 334 -570z m-2271 228 l42 -21 -140 -67 c-144
-68 -199 -107 -234 -163 -28 -45 -131 -417 -131 -472 0 -59 30 -117 75 -145
38 -23 186 -49 283 -50 93 0 124 26 228 199 38 62 80 121 93 129 29 19 170 19
206 -1 12 -6 124 -88 248 -181 l226 -170 -47 -32 c-78 -52 -131 -144 -132
-230 l0 -42 -53 -6 c-105 -13 -202 -79 -247 -166 -11 -22 -26 -68 -33 -102
l-12 -63 -58 -7 c-32 -4 -65 -12 -74 -17 -13 -7 -30 1 -69 31 -56 42 -125 68
-179 68 -32 0 -32 1 -39 56 -17 144 -130 259 -267 271 l-57 6 -6 51 c-27 215
-248 342 -441 253 -48 -22 -91 -59 -215 -182 -86 -85 -159 -155 -164 -155 -16
0 -316 183 -316 192 0 6 114 208 253 449 l252 437 311 4 312 3 143 72 c79 40
157 72 172 73 15 0 47 -10 70 -22z m820 -114 c402 -133 424 -137 557 -89 41
15 83 28 92 29 25 2 462 -754 445 -770 -17 -16 -453 -264 -463 -264 -5 0 -61
51 -124 114 -88 87 -197 176 -460 372 -190 141 -364 265 -386 275 -26 12 -79
21 -141 25 -178 12 -231 -20 -348 -211 -42 -68 -80 -127 -84 -129 -14 -9 -196
16 -209 29 -10 9 -3 48 42 204 30 106 63 202 73 213 10 12 95 58 188 103 94
46 230 112 304 149 73 36 141 66 149 66 9 0 173 -52 365 -116z m-1450 -898
c43 -17 85 -68 93 -111 14 -79 2 -99 -154 -258 -186 -190 -209 -207 -276 -207
-116 0 -187 107 -145 217 13 36 303 329 349 353 42 23 89 25 133 6z m1725 -80
c15 -8 102 -90 193 -183 148 -148 168 -173 174 -209 13 -79 -45 -166 -120
-180 -81 -15 -99 -4 -274 169 -179 177 -207 219 -196 287 17 100 136 162 223
116z m-1369 -264 c65 -48 90 -136 57 -200 -8 -15 -88 -100 -178 -188 -180
-179 -205 -194 -279 -174 -84 23 -131 100 -114 188 6 31 34 65 178 210 107
108 183 176 202 182 42 13 104 5 134 -18z m1034 -68 c38 -19 332 -308 353
-346 8 -15 14 -49 14 -76 0 -125 -132 -193 -241 -123 -24 15 -108 93 -186 173
-108 111 -144 155 -153 186 -39 129 94 245 213 186z m-744 -244 c47 -13 99
-66 112 -112 21 -79 4 -106 -179 -290 -181 -180 -209 -198 -288 -183 -51 9
-110 68 -119 119 -15 79 3 107 183 288 122 121 177 169 202 176 47 13 50 14
89 2z m404 -84 c45 -19 364 -344 372 -379 26 -102 -46 -199 -149 -199 -51 0
-90 18 -129 59 -25 27 -27 32 -18 79 24 125 -53 258 -169 293 l-40 12 0 65 c0
58 2 66 23 74 33 13 74 12 110 -4z m-107 -317 c27 -25 40 -76 29 -110 -9 -27
-192 -219 -249 -260 -83 -61 -176 -17 -176 82 0 28 18 50 133 167 72 74 141
138 152 143 30 13 85 2 111 -22z m102 -342 c11 -43 4 -71 -23 -101 -36 -39
-90 -46 -135 -16 -12 8 -1 23 59 84 41 41 78 73 83 70 4 -3 11 -19 16 -37z"/>
</g>
</svg>
