<svg fill="none" height="45" viewBox="0 0 45 45" width="45" xmlns="http://www.w3.org/2000/svg"><path d="m14.1565 40.7814c16.977 0 26.2653-14.0687 26.2653-26.2653 0-.3955-.0088-.7998-.0264-1.1953 1.8069-1.3067 3.3662-2.9252 4.6046-4.77946-1.6828.74869-3.4694 1.23765-5.2989 1.45019 1.9263-1.15467 3.3686-2.96862 4.0596-5.10556-1.8122 1.07398-3.794 1.83158-5.8605 2.24033-1.3924-1.47947-3.2333-2.45905-5.2383-2.7873-2.0049-.32825-4.0622.01312-5.8536.97133-1.7915.95821-3.2174 2.4799-4.0573 4.32978-.8399 1.84989-1.0471 3.92499-.5894 5.90439-3.6694-.1842-7.2592-1.1374-10.5366-2.7979-3.27745-1.6605-6.16933-3.99125-8.48818-6.8411-1.17857 2.03198-1.53921 4.4365-1.00864 6.7248.53058 2.2884 1.91256 4.2888 3.86508 5.5948-1.46583-.0465-2.89956-.4412-4.18271-1.1513v.1142c-.00132 2.1324.73588 4.1995 2.08628 5.8498 1.3504 1.6504 3.23065 2.7822 5.32114 3.2029-1.35787.3716-2.783.4257-4.16514.1583.5899 1.8338 1.73762 3.4378 3.28299 4.588s3.41128 1.7893 5.33728 1.828c-3.2698 2.5685-7.30902 3.9616-11.46705 3.955-.73739-.0011-1.474052-.0463-2.20605-.1353 4.22411 2.71 9.13787 4.1493 14.1565 4.1467z" fill="#fcfcfc"/></svg>