<svg width="35" height="35" viewBox="0 0 35 35" fill="none" xmlns="http://www.w3.org/2000/svg">
<path d="M11.0106 31.7193C24.2149 31.7193 31.4392 20.777 31.4392 11.2908C31.4392 10.9832 31.4323 10.6687 31.4187 10.3611C32.824 9.34479 34.0368 8.08595 35 6.64372C33.6912 7.22604 32.3016 7.60635 30.8786 7.77165C32.3769 6.87357 33.4987 5.46273 34.0361 3.80066C32.6266 4.63598 31.0852 5.22522 29.4779 5.54314C28.395 4.39244 26.9631 3.63054 25.4037 3.37524C23.8443 3.11993 22.2442 3.38545 20.8509 4.13072C19.4575 4.876 18.3485 6.05953 17.6952 7.49833C17.0419 8.93713 16.8808 10.5511 17.2368 12.0906C14.3828 11.9474 11.5907 11.206 9.04164 9.91447C6.49254 8.62296 4.2433 6.81017 2.43975 4.59363C1.52308 6.17406 1.24258 8.04423 1.65525 9.82405C2.06792 11.6039 3.1428 13.1598 4.66143 14.1756C3.52133 14.1394 2.40621 13.8324 1.4082 13.2801V13.3689C1.40718 15.0275 1.98056 16.6352 3.03087 17.9188C4.08118 19.2024 5.5436 20.0826 7.16953 20.4099C6.11341 20.6989 5.00497 20.741 3.92998 20.533C4.38879 21.9593 5.28146 23.2069 6.48342 24.1015C7.68537 24.9961 9.13663 25.4931 10.6347 25.5232C8.09145 27.5209 4.94984 28.6045 1.71582 28.5994C1.14229 28.5985 0.569332 28.5634 0 28.4941C3.28542 30.6019 7.10723 31.7213 11.0106 31.7193Z" fill="#FCFCFC"/>
</svg>
