<svg fill="none" height="253" viewBox="0 0 253 253" width="253" xmlns="http://www.w3.org/2000/svg"><circle cx="126.5" cy="126.5" fill="#a524ff" r="126.5"/><g fill="#fff"><path d="m185.639 169.573v11.378h-14.238c-9.956-.007-19.667-3.083-27.812-8.809-8.144-5.725-14.326-13.822-17.702-23.188-3.379 9.363-9.562 17.458-17.706 23.181s-17.8542 8.797-27.8082 8.804h-14.238v-11.366h14.2294c9.3173.001 18.2916-3.515 25.1278-9.845 6.836-6.331 11.03-15.009 11.743-24.299h17.286c.713 9.29 4.907 17.968 11.743 24.299 6.837 6.33 15.811 9.846 25.128 9.845z"/><path d="m197 132.582c.002 1.733-.171 3.462-.516 5.16-1.224 5.912-4.497 11.202-9.241 14.936-4.744 3.733-10.655 5.67-16.689 5.469s-11.803-2.527-16.289-6.569c-4.485-4.041-7.398-9.537-8.225-15.517-.714-5.13.153-10.356 2.484-14.981.645-1.293 1.402-2.527 2.262-3.688.081-.106.171-.217.26-.341 3.991-5.382 6.14-11.908 6.129-18.6084 0-8.2983-3.296-16.2567-9.164-22.1244-5.868-5.8678-13.826-9.1643-22.124-9.1643-8.299 0-16.257 3.2965-22.125 9.1643-5.8675 5.8677-9.164 13.8261-9.164 22.1244-.0167 6.7094 2.1328 13.2444 6.129 18.6344.089.123.179.234.26.341.86 1.161 1.617 2.395 2.262 3.688 1.642 3.258 2.569 6.83 2.718 10.476s-.483 7.282-1.853 10.664c-1.371 3.382-3.448 6.432-6.0933 8.945-2.6451 2.514-5.7969 4.433-9.2441 5.63-3.4473 1.196-7.1105 1.642-10.7441 1.308-3.6336-.335-7.1538-1.442-10.3247-3.248s-5.9192-4.268-8.0609-7.223c-2.1417-2.954-3.6273-6.332-4.3572-9.907-.8443-4.156-.6466-8.457.5755-12.518s3.4306-7.756 6.4283-10.756l3.3291 3.334 4.6948 4.716c-1.9244 1.925-3.2557 4.362-3.8359 7.022-.5801 2.66-.3848 5.43.5629 7.982.9476 2.552 2.6078 4.778 4.7833 6.414s4.7749 2.614 7.4894 2.816c2.7146.203 5.4303-.378 7.8246-1.673s4.3666-3.25 5.6827-5.633c1.316-2.383 1.9205-5.093 1.7416-7.81-.1789-2.716-1.1336-5.324-2.7508-7.513-.0512-.06-.0896-.116-.1323-.171-3.6017-4.819-6.1401-10.346-7.4476-16.218-.0384-.158-.0683-.325-.1067-.487-.6087-2.897-.9176-5.849-.9219-8.8091 0-.9162.0299-1.8267.0896-2.7316.2366-3.825.9933-7.5999 2.2493-11.2205 2.9025-8.3863 8.3469-15.6592 15.5754-20.8068 7.229-5.1476 15.883-7.9138 24.757-7.9138s17.528 2.7662 24.757 7.9138 12.673 12.4205 15.576 20.8068c1.259 3.6272 2.017 7.4095 2.253 11.2419.06.9048.09 1.8153.09 2.7315-.001 2.9538-.306 5.8998-.909 8.7918-.039.162-.069.329-.107.487-1.307 5.872-3.846 11.4-7.448 16.218-.042.056-.081.111-.132.171-1.619 2.19-2.575 4.799-2.754 7.516-.18 2.718.424 5.43 1.74 7.814 1.317 2.384 3.29 4.34 5.685 5.636s5.112 1.877 7.828 1.675c2.716-.203 5.316-1.181 7.493-2.818 2.176-1.638 3.837-3.865 4.784-6.418.948-2.554 1.143-5.325.562-7.986-.582-2.66-1.914-5.098-3.84-7.024l4.716-4.716 3.329-3.333c2.381 2.374 4.269 5.196 5.556 8.302 1.286 3.106 1.947 6.436 1.943 9.798z"/><path d="m100.44 198.006c.707-6.253 3.693-12.027 8.386-16.22 4.694-4.193 10.767-6.51 17.06-6.51s12.367 2.317 17.06 6.51 7.679 9.967 8.386 16.22h-11.524c-.658-3.21-2.405-6.095-4.945-8.167-2.539-2.071-5.716-3.203-8.994-3.203-3.277 0-6.455 1.132-8.994 3.203-2.54 2.072-4.287 4.957-4.945 8.167z"/><path d="m120.198 118.357c1.57 0 2.842-1.272 2.842-2.842s-1.272-2.843-2.842-2.843-2.843 1.273-2.843 2.843 1.273 2.842 2.843 2.842z"/><path d="m131.574 118.357c1.57 0 2.843-1.272 2.843-2.842s-1.273-2.843-2.843-2.843c-1.569 0-2.842 1.273-2.842 2.843s1.273 2.842 2.842 2.842z"/></g></svg>