<svg width="24" height="24" viewBox="0 0 24 24" fill="none" xmlns="http://www.w3.org/2000/svg">
<path d="M14 2.26929V6.39983C14 6.95988 14 7.23991 14.109 7.45382C14.2049 7.64198 14.3578 7.79496 14.546 7.89083C14.7599 7.99983 15.0399 7.99983 15.6 7.99983H19.7305M16 12.9998H8M16 16.9998H8M10 8.99976H8M14 1.99976L8.8 1.99976C7.11984 1.99976 6.27976 1.99976 5.63803 2.32674C5.07354 2.61436 4.6146 3.0733 4.32698 3.63778C4 4.27952 4 5.1196 4 6.79976L4 17.1998C4 18.8799 4 19.72 4.32698 20.3617C4.6146 20.9262 5.07354 21.3852 5.63803 21.6728C6.27976 21.9998 7.11984 21.9998 8.8 21.9998H15.2C16.8802 21.9998 17.7202 21.9998 18.362 21.6728C18.9265 21.3852 19.3854 20.9262 19.673 20.3617C20 19.72 20 18.8799 20 17.1998V7.99976L14 1.99976Z" stroke="white" stroke-width="2" stroke-linecap="round" stroke-linejoin="round"/>
</svg>
