<?xml version="1.0" standalone="no"?>
<!DOCTYPE svg PUBLIC "-//W3C//DTD SVG 20010904//EN"
 "http://www.w3.org/TR/2001/REC-SVG-20010904/DTD/svg10.dtd">
<svg version="1.0" xmlns="http://www.w3.org/2000/svg"
 width="512.000000pt" height="512.000000pt" viewBox="0 0 512.000000 512.000000"
 preserveAspectRatio="xMidYMid meet">

<g transform="translate(0.000000,512.000000) scale(0.100000,-0.100000)"
fill="#fff" stroke="none">
<path d="M1410 5105 c-218 -54 -375 -223 -397 -426 l-6 -59 1336 0 c1303 0
1336 0 1399 -20 125 -38 258 -150 312 -263 59 -122 56 -4 56 -2006 l0 -1834
78 6 c249 17 444 199 473 441 6 51 9 765 7 1921 l-3 1840 -21 62 c-53 152
-164 262 -330 325 l-59 23 -1395 2 c-1147 1 -1405 -1 -1450 -12z"/>
<path d="M565 4274 c-16 -8 -43 -27 -58 -42 -61 -58 -57 59 -55 -2108 l3
-1981 30 -48 c20 -32 45 -56 74 -72 l44 -23 1511 0 c1448 0 1513 1 1551 19 48
22 79 54 100 103 13 33 15 254 15 2030 l0 1992 -21 44 c-15 29 -37 54 -67 73
l-46 29 -1525 0 c-1362 0 -1529 -2 -1556 -16z m2441 -1075 c70 -33 105 -111
85 -187 -14 -49 -76 -108 -123 -117 -18 -3 -400 -5 -849 -3 l-816 3 -37 29
c-100 76 -83 232 29 282 24 11 189 13 849 14 809 0 820 0 862 -21z m-13 -653
c18 -7 46 -29 63 -48 60 -68 53 -159 -15 -221 -22 -20 -55 -39 -73 -42 -18 -3
-401 -5 -850 -3 -807 3 -817 3 -844 24 -44 32 -66 68 -71 117 -9 79 21 134 92
171 26 14 126 16 848 16 664 0 824 -3 850 -14z m-6 -657 c43 -16 92 -69 104
-112 20 -75 -15 -153 -85 -186 -43 -21 -49 -21 -874 -19 -825 3 -831 3 -859
24 -15 11 -39 36 -51 55 -20 28 -23 44 -20 92 5 69 27 103 88 135 l44 22 812
0 c549 0 822 -3 841 -11z"/>
</g>
</svg>
