<svg width="45" height="45" viewBox="0 0 45 45" fill="none" xmlns="http://www.w3.org/2000/svg">
<path d="M43.125 22.5C43.125 33.8909 33.8909 43.125 22.5 43.125M43.125 22.5C43.125 11.1091 33.8909 1.875 22.5 1.875M43.125 22.5H1.875M22.5 43.125C11.1091 43.125 1.875 33.8909 1.875 22.5M22.5 43.125C22.5 43.125 15 39 15 22.5C15 6 22.5 1.875 22.5 1.875M22.5 43.125C22.5 43.125 30 39 30 22.5C30 6 22.5 1.875 22.5 1.875M1.875 22.5C1.875 11.1091 11.1091 1.875 22.5 1.875" stroke="#FCFCFC" stroke-width="1.74933"/>
</svg>
