<svg width="111" height="101" viewBox="0 0 111 101" fill="none" xmlns="http://www.w3.org/2000/svg">
<path d="M76.6673 82.25L87.2507 92.8333L108.417 71.6667M55.5007 66.375H34.334C24.4716 66.375 19.5403 66.375 15.6505 67.9862C10.4641 70.1345 6.34349 74.2551 4.1952 79.4415C2.58398 83.3314 2.58398 88.2626 2.58398 98.125M74.0215 4.4136C81.7786 7.55361 87.2507 15.1586 87.2507 24.0417C87.2507 32.9247 81.7786 40.5297 74.0215 43.6697M63.4382 24.0417C63.4382 35.7317 53.9615 45.2083 42.2715 45.2083C30.5815 45.2083 21.1048 35.7317 21.1048 24.0417C21.1048 12.3516 30.5815 2.875 42.2715 2.875C53.9615 2.875 63.4382 12.3516 63.4382 24.0417Z" stroke="white" stroke-width="4" stroke-linecap="round" stroke-linejoin="round"/>
</svg>
