<svg width="104" height="104" viewBox="0 0 104 104" fill="none" xmlns="http://www.w3.org/2000/svg">
<path d="M52.0003 95.3333C75.9327 95.3333 95.3337 75.9323 95.3337 52C95.3337 28.0676 75.9327 8.66663 52.0003 8.66663C28.068 8.66663 8.66699 28.0676 8.66699 52C8.66699 75.9323 28.068 95.3333 52.0003 95.3333Z" stroke="white" stroke-width="4" stroke-linecap="round" stroke-linejoin="round"/>
<path d="M52.0003 78C66.3597 78 78.0003 66.3594 78.0003 52C78.0003 37.6406 66.3597 26 52.0003 26C37.6409 26 26.0003 37.6406 26.0003 52C26.0003 66.3594 37.6409 78 52.0003 78Z" stroke="white" stroke-width="4" stroke-linecap="round" stroke-linejoin="round"/>
<path d="M52.0003 60.6666C56.7868 60.6666 60.667 56.7864 60.667 52C60.667 47.2135 56.7868 43.3333 52.0003 43.3333C47.2139 43.3333 43.3337 47.2135 43.3337 52C43.3337 56.7864 47.2139 60.6666 52.0003 60.6666Z" stroke="white" stroke-width="4" stroke-linecap="round" stroke-linejoin="round"/>
</svg>
