<svg width="119" height="119" viewBox="0 0 119 119" fill="none" xmlns="http://www.w3.org/2000/svg">
<path d="M108.579 94.4204V103.861H96.766C88.5057 103.855 80.4481 101.303 73.6907 96.5523C66.9332 91.8016 61.8043 85.0835 59.0026 77.3129C56.1991 85.0815 51.0695 91.7973 44.3122 96.546C37.5549 101.295 29.4982 103.845 21.2392 103.851H9.42578V94.4204H21.2321C28.9627 94.4217 36.4088 91.5042 42.0809 86.2517C47.753 80.9991 51.2329 73.7987 51.8246 66.0908H66.1665C66.7581 73.7987 70.238 80.9991 75.9101 86.2517C81.5822 91.5042 89.0283 94.4217 96.7589 94.4204H108.579Z" fill="white"/>
<path d="M118.005 63.7285C118.007 65.1664 117.864 66.6008 117.577 68.0098C116.562 72.9151 113.846 77.3041 109.91 80.4019C105.973 83.4996 101.069 85.1069 96.0624 84.94C91.0559 84.7731 86.2694 82.8428 82.5479 79.4897C78.8265 76.1367 76.4093 71.5766 75.7233 66.6146C75.1308 62.3582 75.8497 58.0223 77.7842 54.185C78.3196 53.1124 78.9476 52.0886 79.6611 51.1254C79.7284 51.0368 79.8027 50.9448 79.8771 50.8421C83.1883 46.3762 84.9715 40.9619 84.9623 35.4024C84.9623 28.5173 82.2271 21.9141 77.3586 17.0456C72.4901 12.177 65.8869 9.44189 59.0017 9.44189C52.1166 9.44189 45.5134 12.177 40.6448 17.0456C35.7763 21.9141 33.0412 28.5173 33.0412 35.4024C33.0273 40.9692 34.8108 46.3916 38.1263 50.8633C38.2007 50.966 38.2751 51.0581 38.3424 51.1466C39.0559 52.1099 39.6839 53.1337 40.2192 54.2062C41.5815 56.91 42.3503 59.8737 42.474 62.8988C42.5977 65.9239 42.0734 68.9405 40.9364 71.7465C39.7993 74.5524 38.0757 77.083 35.881 79.1686C33.6864 81.2543 31.0713 82.8468 28.2111 83.8395C25.3508 84.8322 22.3115 85.2021 19.2966 84.9246C16.2817 84.647 13.361 83.7283 10.7301 82.2301C8.0992 80.7318 5.81887 78.6886 4.04189 76.2374C2.26491 73.7861 1.03232 70.9833 0.426711 68.0169C-0.273846 64.5686 -0.10981 61.0006 0.904175 57.6311C1.91816 54.2617 3.75055 51.1957 6.23782 48.7067L8.99996 51.4724L12.8953 55.3854C11.2986 56.9829 10.194 59.0051 9.71267 61.2118C9.23129 63.4185 9.39337 65.717 10.1797 67.8343C10.9659 69.9516 12.3434 71.7987 14.1484 73.1563C15.9534 74.514 18.1102 75.325 20.3625 75.4931C22.6148 75.6613 24.8681 75.1794 26.8547 74.1048C28.8412 73.0303 30.4777 71.4081 31.5696 69.431C32.6615 67.4539 33.163 65.2049 33.0146 62.9512C32.8662 60.6975 32.0741 58.5338 30.7323 56.7169C30.6898 56.6674 30.6579 56.6213 30.6225 56.5753C27.6341 52.5773 25.528 47.9908 24.4431 43.1187C24.4113 42.9877 24.3865 42.8496 24.3546 42.715C23.8496 40.3114 23.5933 37.8621 23.5897 35.406C23.5897 34.6458 23.6145 33.8903 23.6641 33.1396C23.8603 29.966 24.4882 26.8339 25.5303 23.8298C27.9385 16.8716 32.4559 10.8372 38.4537 6.56621C44.4515 2.29519 51.6315 0 58.9946 0C66.3577 0 73.5378 2.29519 79.5356 6.56621C85.5334 10.8372 90.0507 16.8716 92.459 23.8298C93.5039 26.8394 94.1329 29.9775 94.3287 33.1573C94.3783 33.9081 94.4031 34.6635 94.4031 35.4237C94.4021 37.8747 94.1493 40.3192 93.6488 42.7186C93.617 42.8531 93.5922 42.9912 93.5603 43.1223C92.4755 47.9944 90.3693 52.5809 87.3809 56.5788C87.3455 56.6249 87.3136 56.6709 87.2711 56.7205C85.9281 58.5377 85.135 60.7022 84.9859 62.9569C84.8368 65.2116 85.3381 67.4617 86.4302 69.4398C87.5222 71.418 89.1592 73.0412 91.1466 74.1164C93.134 75.1917 95.3883 75.6738 97.6416 75.5056C99.895 75.3374 102.053 74.5259 103.858 73.1675C105.664 71.8091 107.042 69.9609 107.828 67.8425C108.614 65.7241 108.776 63.4245 108.294 61.217C107.812 59.0094 106.706 56.9866 105.108 55.389L109.021 51.476L111.783 48.7103C113.759 50.6803 115.325 53.0213 116.393 55.5986C117.46 58.1759 118.008 60.9388 118.005 63.7285Z" fill="white"/>
<path d="M37.8887 118.012C38.4754 112.823 40.9523 108.032 44.8465 104.553C48.7408 101.075 53.7796 99.1519 59.0013 99.1519C64.223 99.1519 69.2619 101.075 73.1561 104.553C77.0503 108.032 79.5272 112.823 80.114 118.012H70.5527C70.0063 115.348 68.557 112.954 66.4498 111.235C64.3425 109.516 61.7065 108.578 58.9872 108.578C56.2678 108.578 53.6318 109.516 51.5245 111.235C49.4173 112.954 47.968 115.348 47.4216 118.012H37.8887Z" fill="white"/>
<path d="M54.2803 51.9259C55.5828 51.9259 56.6388 50.87 56.6388 49.5674C56.6388 48.2649 55.5828 47.209 54.2803 47.209C52.9778 47.209 51.9219 48.2649 51.9219 49.5674C51.9219 50.87 52.9778 51.9259 54.2803 51.9259Z" fill="white"/>
<path d="M63.7217 51.9259C65.0242 51.9259 66.0802 50.87 66.0802 49.5674C66.0802 48.2649 65.0242 47.209 63.7217 47.209C62.4192 47.209 61.3633 48.2649 61.3633 49.5674C61.3633 50.87 62.4192 51.9259 63.7217 51.9259Z" fill="white"/>
</svg>
