<svg width="100" height="100" viewBox="0 0 100 100" fill="none" xmlns="http://www.w3.org/2000/svg">
<path d="M91.6668 50C91.6668 73.0119 73.012 91.6667 50.0002 91.6667C26.9883 91.6667 8.3335 73.0119 8.3335 50M91.6668 50C91.6668 26.9881 73.012 8.33334 50.0002 8.33334M91.6668 50H81.2502M8.3335 50C8.3335 26.9881 26.9883 8.33334 50.0002 8.33334M8.3335 50H18.7502M50.0002 8.33334V18.75M79.4936 20.8333L56.2498 43.75M79.4936 79.4935L78.644 78.6439C75.7615 75.7614 74.3202 74.3201 72.6383 73.2894C71.147 72.3755 69.5213 71.7021 67.8207 71.2939C65.9025 70.8334 63.8643 70.8334 59.7877 70.8334L40.2125 70.8335C36.136 70.8335 34.0977 70.8335 32.1796 71.294C30.479 71.7023 28.8533 72.3757 27.3621 73.2895C25.6802 74.3202 24.2389 75.7615 21.3564 78.644L20.507 79.4935M20.507 20.8333L27.7422 28.0686M58.3335 50C58.3335 54.6024 54.6025 58.3333 50.0002 58.3333C45.3978 58.3333 41.6668 54.6024 41.6668 50C41.6668 45.3976 45.3978 41.6667 50.0002 41.6667C54.6025 41.6667 58.3335 45.3976 58.3335 50Z" stroke="white" stroke-width="4" stroke-linecap="round" stroke-linejoin="round"/>
</svg>
