<svg width="100" height="100" viewBox="0 0 100 100" fill="none" xmlns="http://www.w3.org/2000/svg">
<path d="M49.9998 62.5L37.4998 50M49.9998 62.5C55.82 60.2864 61.4035 57.4947 66.6665 54.1667M49.9998 62.5V83.3333C49.9998 83.3333 62.6248 81.0417 66.6665 75C71.1665 68.25 66.6665 54.1667 66.6665 54.1667M37.4998 50C39.7171 44.2476 42.509 38.7336 45.8332 33.5417C50.6881 25.7791 57.4483 19.3877 65.4707 14.9754C73.4931 10.5631 82.5109 8.27655 91.6665 8.33334C91.6665 19.6667 88.4165 39.5833 66.6665 54.1667M37.4998 50H16.6665C16.6665 50 18.9582 37.375 24.9998 33.3333C31.7498 28.8333 45.8332 33.3333 45.8332 33.3333M18.7498 68.75C12.4998 74 10.4165 89.5833 10.4165 89.5833C10.4165 89.5833 25.9998 87.5 31.2498 81.25C34.2082 77.75 34.1665 72.375 30.8748 69.125C29.2553 67.5792 27.1219 66.686 24.8841 66.6168C22.6463 66.5476 20.4618 67.3073 18.7498 68.75Z" stroke="white" stroke-width="4" stroke-linecap="round" stroke-linejoin="round"/>
</svg>
