<svg width="180" height="60" viewBox="0 0 180 60" fill="none" xmlns="http://www.w3.org/2000/svg">
<path d="M54.8225 47.7265V52.4981H48.8657C44.6949 52.4954 40.6263 51.2062 37.2139 48.8061C33.8015 46.406 31.2111 43.0117 29.7953 39.0852C28.3796 43.0117 25.7892 46.406 22.3768 48.8061C18.9643 51.2062 14.8958 52.4954 10.725 52.4981H4.76465V47.7265H10.725C14.6289 47.7271 18.3892 46.2525 21.2536 43.5978C24.1179 40.943 25.8753 37.3037 26.1741 33.408H33.4238C33.7226 37.3037 35.4799 40.943 38.3443 43.5978C41.2087 46.2525 44.9689 47.7271 48.8728 47.7265H54.8225Z" fill="white"/>
<path d="M59.5929 32.2141C59.5939 32.9409 59.5214 33.6659 59.3765 34.378C58.864 36.8573 57.4927 39.0756 55.5047 40.6413C53.5168 42.207 51.0401 43.0193 48.5119 42.935C45.9836 42.8506 43.5665 41.875 41.6872 40.1803C39.8078 38.4855 38.5872 36.1808 38.2407 33.6728C37.9415 31.5216 38.3046 29.3301 39.2815 27.3906C39.5519 26.8485 39.869 26.3311 40.2293 25.8442C40.2633 25.7995 40.3008 25.7529 40.3384 25.701C42.0089 23.4439 42.9081 20.7081 42.9028 17.8992C42.9028 14.4193 41.5216 11.0819 39.063 8.62121C36.6044 6.16052 33.2698 4.77812 29.7928 4.77812C26.3159 4.77812 22.9813 6.16052 20.5227 8.62121C18.0641 11.0819 16.6829 14.4193 16.6829 17.8992C16.6795 20.7122 17.5812 23.4516 19.2545 25.7118C19.292 25.7637 19.3296 25.8102 19.3635 25.8549C19.7245 26.3414 20.0417 26.8589 20.3113 27.4013C21.0004 28.768 21.3896 30.2662 21.4528 31.7957C21.516 33.3251 21.2518 34.8504 20.6778 36.2693C20.1039 37.6882 19.2335 38.9679 18.125 40.0226C17.0165 41.0773 15.6955 41.8826 14.2506 42.3846C12.8057 42.8865 11.2702 43.0735 9.74724 42.933C8.22423 42.7925 6.74883 42.3277 5.41997 41.5698C4.09111 40.812 2.9395 39.7785 2.04233 38.5388C1.14517 37.299 0.523193 35.8816 0.218103 34.3816C-0.13786 32.6402 -0.0571174 30.8377 0.453112 29.1352C0.963342 27.4326 1.88716 25.8832 3.14196 24.6253L4.53683 26.0232L6.50395 28.0009C5.69765 28.8083 5.13983 29.8304 4.89674 30.9457C4.65365 32.061 4.7355 33.2227 5.13257 34.2929C5.52964 35.363 6.22525 36.2966 7.13677 36.9828C8.0483 37.669 9.13745 38.0789 10.2749 38.1639C11.4123 38.2488 12.5502 38.0053 13.5534 37.4622C14.5566 36.9191 15.383 36.0992 15.9344 35.0999C16.4858 34.1006 16.7391 32.964 16.6641 31.8249C16.5892 30.6858 16.1891 29.5922 15.5116 28.6739C15.4901 28.6488 15.474 28.6256 15.4561 28.6023C13.947 26.5816 12.8834 24.2635 12.3356 21.801C12.3195 21.7348 12.3069 21.665 12.2909 21.597C12.0375 20.3813 11.9099 19.1428 11.9099 17.901C11.9099 17.5168 11.9225 17.135 11.9475 16.7555C12.0466 15.1515 12.3637 13.5685 12.8899 12.0501C14.2399 8.14185 16.9004 4.82201 20.4193 2.65483C23.9382 0.487654 28.0983 -0.393147 32.1926 0.162124C36.2869 0.717396 40.0628 2.67448 42.8785 5.70076C45.6942 8.72704 47.3761 12.6358 47.6382 16.7627C47.6608 17.1421 47.6728 17.524 47.674 17.9082C47.6734 19.147 47.5458 20.3825 47.2931 21.5952C47.277 21.6632 47.2644 21.733 47.2483 21.7992C46.8955 23.3866 46.3269 24.918 45.5584 26.3507C45.1378 27.1345 44.6596 27.8859 44.1278 28.5987C44.1099 28.622 44.0938 28.6453 44.0723 28.6703C43.3941 29.5888 42.9936 30.6828 42.9183 31.8224C42.843 32.9619 43.0962 34.0992 43.6477 35.099C44.1992 36.0988 45.0258 36.9192 46.0294 37.4627C47.0331 38.0061 48.1715 38.2498 49.3094 38.1648C50.4473 38.0798 51.5369 37.6696 52.4488 36.9831C53.3607 36.2965 54.0565 35.3624 54.4536 34.2917C54.8506 33.221 54.9323 32.0587 54.6888 30.943C54.4453 29.8272 53.8869 28.8048 53.08 27.9974L55.0471 26.0196L56.4437 24.6218C57.4424 25.6173 58.2347 26.8006 58.7751 28.1035C59.3156 29.4065 59.5935 30.8034 59.5929 32.2141Z" fill="white"/>
<path d="M19.1338 59.6503C19.4301 57.0278 20.6809 54.6064 22.6475 52.8482C24.614 51.09 27.1586 50.1182 29.7956 50.1182C32.4325 50.1182 34.9771 51.09 36.9437 52.8482C38.9102 54.6064 40.1611 57.0278 40.4574 59.6503H35.629C35.353 58.3039 34.6212 57.0941 33.557 56.2254C32.4929 55.3566 31.1617 54.8821 29.7884 54.8821C28.4152 54.8821 27.084 55.3566 26.0198 56.2254C24.9557 57.0941 24.2238 58.3039 23.9479 59.6503H19.1338Z" fill="white"/>
<path d="M27.4117 26.2483C28.0695 26.2483 28.6027 25.7146 28.6027 25.0563C28.6027 24.3979 28.0695 23.8643 27.4117 23.8643C26.7539 23.8643 26.2207 24.3979 26.2207 25.0563C26.2207 25.7146 26.7539 26.2483 27.4117 26.2483Z" fill="white"/>
<path d="M32.1803 26.2483C32.838 26.2483 33.3713 25.7146 33.3713 25.0563C33.3713 24.3979 32.838 23.8643 32.1803 23.8643C31.5225 23.8643 30.9893 24.3979 30.9893 25.0563C30.9893 25.7146 31.5225 26.2483 32.1803 26.2483Z" fill="white"/>
<path d="M84.4023 38H88.143V29.5233C88.143 25.7139 89.6874 24.7873 91.5749 24.7873C93.5311 24.7873 94.492 25.9198 94.492 28.5624V38H98.2327V29.5233C98.2327 25.7139 99.7084 24.7873 101.596 24.7873C103.552 24.7873 104.582 25.9542 104.582 28.5967V38H108.322V27.876C108.322 24.8903 107.361 21.5957 102.557 21.5957C100.292 21.5957 98.4043 22.8312 97.6493 24.4441C96.9629 22.8655 95.5215 21.5957 92.6045 21.5957C90.511 21.5957 88.8294 22.7625 88.143 24.2382V22.0075H84.4023V38ZM116.274 19.7082C117.921 19.7082 119.054 18.4727 119.054 16.9284C119.054 15.384 117.921 14.1485 116.274 14.1485C114.627 14.1485 113.494 15.384 113.494 16.9284C113.494 18.4727 114.627 19.7082 116.274 19.7082ZM114.386 38H118.127V22.0075H114.386V38ZM124.363 38H128.103V29.5233C128.103 25.7139 129.648 24.7873 131.535 24.7873C133.491 24.7873 134.452 25.9198 134.452 28.5624V38H138.193V29.5233C138.193 25.7139 139.669 24.7873 141.556 24.7873C143.512 24.7873 144.542 25.9542 144.542 28.5967V38H148.283V27.876C148.283 24.8903 147.322 21.5957 142.517 21.5957C140.252 21.5957 138.365 22.8312 137.61 24.4441C136.923 22.8655 135.482 21.5957 132.565 21.5957C130.471 21.5957 128.79 22.7625 128.103 24.2382V22.0075H124.363V38ZM156.234 19.7082C157.881 19.7082 159.014 18.4727 159.014 16.9284C159.014 15.384 157.881 14.1485 156.234 14.1485C154.587 14.1485 153.454 15.384 153.454 16.9284C153.454 18.4727 154.587 19.7082 156.234 19.7082ZM154.347 38H158.087V22.0075H154.347V38ZM171.084 38.4118C175.545 38.4118 178.325 36.0438 178.668 32.4747H174.927C174.515 34.1563 173.349 35.0829 171.084 35.0829C168.441 35.0829 166.862 33.264 166.862 30.0038C166.862 26.7435 168.441 24.9246 171.084 24.9246C173.349 24.9246 174.515 25.8855 174.927 27.7044H178.668C178.325 24.0323 175.545 21.5957 171.084 21.5957C166.107 21.5957 163.122 25.0276 163.122 30.0038C163.122 34.98 166.107 38.4118 171.084 38.4118Z" fill="#FCFCFC"/>
</svg>
