<svg width="101" height="101" viewBox="0 0 101 101" fill="none" xmlns="http://www.w3.org/2000/svg">
<path d="M76.9593 34.6247C76.9592 31.9163 75.926 29.2079 73.8595 27.1415C71.793 25.0749 69.0845 24.0417 66.376 24.0417M66.376 66.375C83.911 66.375 98.126 52.16 98.126 34.625C98.126 17.09 83.911 2.875 66.376 2.875C48.8409 2.875 34.626 17.09 34.626 34.625C34.626 36.0732 34.7229 37.4988 34.9107 38.8956C35.2196 41.1929 35.374 42.3416 35.2701 43.0683C35.1618 43.8254 35.0239 44.2333 34.6508 44.9009C34.2926 45.5417 33.6614 46.1729 32.3989 47.4354L5.35581 74.4785C4.4406 75.3937 3.983 75.8513 3.65576 76.3853C3.36562 76.8588 3.15181 77.375 3.02219 77.9149C2.87598 78.5239 2.87598 79.171 2.87598 80.4653V89.6583C2.87598 92.6219 2.87598 94.1037 3.45273 95.2357C3.96006 96.2314 4.76959 97.0409 5.76528 97.5482C6.89723 98.125 8.37903 98.125 11.3426 98.125H24.0426V87.5417H34.626V76.9583H45.2093L53.5656 68.6021C54.828 67.3396 55.4593 66.7084 56.1001 66.3502C56.7676 65.9771 57.1756 65.8392 57.9326 65.7309C58.6594 65.627 59.8081 65.7814 62.1054 66.0903C63.5022 66.278 64.9278 66.375 66.376 66.375Z" stroke="white" stroke-width="4" stroke-linecap="round" stroke-linejoin="round"/>
</svg>
