<svg width="484" height="1538" viewBox="0 0 484 1538" fill="none" xmlns="http://www.w3.org/2000/svg">
<path d="M129.502 351C101.501 155.5 211.473 55.3571 344.756 36.0964C364.185 33.2887 383.478 32.3247 402.415 33.0472" stroke="white" stroke-miterlimit="10"/>
<path d="M80.001 303.707L128.563 351.003L174.476 301" stroke="white" stroke-miterlimit="10"/>
<mask id="path-3-inside-1_483_20380" fill="white">
<path fill-rule="evenodd" clip-rule="evenodd" d="M4.00098 441C4.00098 436.582 7.5827 433 12.001 433H472.001C476.419 433 480.001 436.582 480.001 441V939V970V1085C480.001 1089.42 476.419 1093 472.001 1093H391.001C386.583 1093 383.001 1089.42 383.001 1085V978C383.001 973.582 379.419 970 375.001 970H109.001C104.583 970 101.001 973.582 101.001 978V1085C101.001 1089.42 97.4193 1093 93.001 1093H12.001C7.5827 1093 4.00098 1089.42 4.00098 1085V970V939V441Z"/>
</mask>
<path d="M472.001 432H12.001V434H472.001V432ZM481.001 939V441H479.001V939H481.001ZM479.001 939V970H481.001V939H479.001ZM479.001 970V1085H481.001V970H479.001ZM472.001 1092H391.001V1094H472.001V1092ZM384.001 1085V978H382.001V1085H384.001ZM109.001 971H375.001V969H109.001V971ZM102.001 1085V978H100.001V1085H102.001ZM12.001 1094H93.001V1092H12.001V1094ZM3.00098 970V1085H5.00098V970H3.00098ZM3.00098 939V970H5.00098V939H3.00098ZM3.00098 441V939H5.00098V441H3.00098ZM12.001 1092C8.13498 1092 5.00098 1088.87 5.00098 1085H3.00098C3.00098 1089.97 7.03041 1094 12.001 1094V1092ZM100.001 1085C100.001 1088.87 96.867 1092 93.001 1092V1094C97.9715 1094 102.001 1089.97 102.001 1085H100.001ZM109.001 969C104.03 969 100.001 973.029 100.001 978H102.001C102.001 974.134 105.135 971 109.001 971V969ZM479.001 1085C479.001 1088.87 475.867 1092 472.001 1092V1094C476.972 1094 481.001 1089.97 481.001 1085H479.001ZM384.001 978C384.001 973.029 379.972 969 375.001 969V971C378.867 971 382.001 974.134 382.001 978H384.001ZM12.001 432C7.03041 432 3.00098 436.029 3.00098 441H5.00098C5.00098 437.134 8.13498 434 12.001 434V432ZM391.001 1092C387.135 1092 384.001 1088.87 384.001 1085H382.001C382.001 1089.97 386.03 1094 391.001 1094V1092ZM472.001 434C475.867 434 479.001 437.134 479.001 441H481.001C481.001 436.029 476.972 432 472.001 432V434Z" fill="white" mask="url(#path-3-inside-1_483_20380)"/>
<circle cx="213.999" cy="752.199" r="24.3333" stroke="#FCFCFC"/>
<path d="M207.535 683.905C210.462 679.021 217.539 679.021 220.465 683.905L230.495 700.643C232.202 703.491 235.572 704.887 238.792 704.08L257.72 699.336C263.243 697.952 268.247 702.956 266.863 708.479L262.12 727.407C261.313 730.628 262.709 733.998 265.557 735.704L282.295 745.734C287.179 748.661 287.179 755.738 282.295 758.664L265.557 768.694C262.709 770.401 261.313 773.771 262.12 776.991L266.863 795.919C268.247 801.442 263.243 806.446 257.72 805.062L238.792 800.319C235.572 799.512 232.202 800.908 230.495 803.756L220.465 820.494C217.539 825.378 210.462 825.378 207.535 820.494L197.505 803.756C195.799 800.908 192.429 799.512 189.208 800.319L170.28 805.062C164.757 806.446 159.753 801.442 161.137 795.919L165.881 776.991C166.688 773.771 165.292 770.401 162.444 768.694L145.706 758.664C140.822 755.738 140.822 748.661 145.706 745.734L162.444 735.704C165.292 733.998 166.688 730.628 165.881 727.407L161.137 708.479C159.753 702.956 164.757 697.952 170.28 699.336L189.208 704.08C192.429 704.887 195.799 703.491 197.505 700.643L207.535 683.905Z" stroke="#FCFCFC"/>
<circle cx="320.838" cy="670.341" r="18.3913" transform="rotate(-8.03091 320.838 670.341)" stroke="#FCFCFC"/>
<path d="M307.593 622.742C309.809 617.497 316.816 616.508 320.396 620.935L326.88 628.953C328.968 631.535 332.5 632.446 335.576 631.197L345.13 627.318C350.405 625.176 356.06 629.432 355.461 635.093L354.376 645.348C354.027 648.65 355.88 651.791 358.938 653.084L368.437 657.096C373.682 659.312 374.671 666.319 370.244 669.899L362.226 676.383C359.644 678.471 358.733 682.003 359.982 685.079L363.861 694.633C366.003 699.909 361.747 705.563 356.086 704.964L345.831 703.879C342.529 703.53 339.388 705.383 338.095 708.442L334.083 717.941C331.867 723.185 324.86 724.174 321.28 719.747L314.796 711.729C312.708 709.147 309.176 708.236 306.1 709.485L296.546 713.364C291.27 715.506 285.616 711.251 286.215 705.589L287.3 695.334C287.649 692.032 285.796 688.891 282.737 687.599L273.238 683.586C267.994 681.37 267.005 674.363 271.432 670.783L279.45 664.299C282.032 662.211 282.943 658.679 281.694 655.603L277.814 646.049C275.673 640.773 279.928 635.119 285.59 635.718L295.845 636.803C299.147 637.152 302.288 635.299 303.58 632.241L307.593 622.742Z" stroke="#FCFCFC"/>
<path d="M53 1489.71L101.562 1537L147.475 1487" stroke="white" stroke-miterlimit="10"/>
<path d="M100 1133L100 1537" stroke="url(#paint0_linear_483_20380)"/>
<defs>
<linearGradient id="paint0_linear_483_20380" x1="100.5" y1="1133" x2="100.5" y2="1537" gradientUnits="userSpaceOnUse">
<stop stop-color="white" stop-opacity="0.15"/>
<stop offset="1" stop-color="white"/>
</linearGradient>
</defs>
</svg>
