<svg width="104" height="104" viewBox="0 0 104 104" fill="none" xmlns="http://www.w3.org/2000/svg">
<path d="M91.8665 95.3333C93.08 95.3333 93.6867 95.3333 94.1502 95.0971C94.5578 94.8894 94.8893 94.558 95.097 94.1503C95.3332 93.6868 95.3332 93.0801 95.3332 91.8666V46.8C95.3332 45.5865 95.3332 44.9798 95.097 44.5163C94.8893 44.1086 94.5578 43.7772 94.1502 43.5695C93.6867 43.3333 93.08 43.3333 91.8665 43.3333L81.4665 43.3333C80.2531 43.3333 79.6463 43.3333 79.1829 43.5695C78.7752 43.7772 78.4437 44.1086 78.236 44.5163C77.9998 44.9798 77.9998 45.5865 77.9998 46.8V57.2C77.9998 58.4134 77.9998 59.0201 77.7637 59.4836C77.556 59.8913 77.2245 60.2227 76.8168 60.4305C76.3533 60.6666 75.7466 60.6666 74.5332 60.6666H64.1332C62.9197 60.6666 62.313 60.6666 61.8495 60.9028C61.4418 61.1105 61.1104 61.442 60.9027 61.8496C60.6665 62.3131 60.6665 62.9198 60.6665 64.1333V74.5333C60.6665 75.7467 60.6665 76.3535 60.4304 76.8169C60.2226 77.2246 59.8912 77.5561 59.4835 77.7638C59.02 78 58.4133 78 57.1998 78H46.7998C45.5864 78 44.9797 78 44.5162 78.2361C44.1085 78.4438 43.7771 78.7753 43.5693 79.183C43.3332 79.6465 43.3332 80.2532 43.3332 81.4666V91.8666C43.3332 93.0801 43.3332 93.6868 43.5693 94.1503C43.7771 94.558 44.1085 94.8894 44.5162 95.0971C44.9797 95.3333 45.5864 95.3333 46.7998 95.3333L91.8665 95.3333Z" stroke="white" stroke-width="4" stroke-linecap="round" stroke-linejoin="round"/>
<path d="M43.3332 29.4666C43.3332 28.2532 43.3332 27.6465 43.5693 27.183C43.7771 26.7753 44.1085 26.4438 44.5162 26.2361C44.9797 26 45.5864 26 46.7998 26H57.1998C58.4133 26 59.02 26 59.4835 26.2361C59.8912 26.4438 60.2226 26.7753 60.4304 27.183C60.6665 27.6465 60.6665 28.2532 60.6665 29.4666V39.8666C60.6665 41.0801 60.6665 41.6868 60.4304 42.1503C60.2226 42.558 59.8912 42.8894 59.4835 43.0971C59.02 43.3333 58.4133 43.3333 57.1998 43.3333H46.7998C45.5864 43.3333 44.9797 43.3333 44.5162 43.0971C44.1085 42.8894 43.7771 42.558 43.5693 42.1503C43.3332 41.6868 43.3332 41.0801 43.3332 39.8666V29.4666Z" stroke="white" stroke-width="4" stroke-linecap="round" stroke-linejoin="round"/>
<path d="M12.9998 55.4666C12.9998 54.2532 12.9998 53.6465 13.236 53.183C13.4437 52.7753 13.7752 52.4438 14.1829 52.2361C14.6463 52 15.2531 52 16.4665 52H26.8665C28.08 52 28.6867 52 29.1502 52.2361C29.5578 52.4438 29.8893 52.7753 30.097 53.183C30.3332 53.6465 30.3332 54.2532 30.3332 55.4666V65.8666C30.3332 67.0801 30.3332 67.6868 30.097 68.1503C29.8893 68.558 29.5578 68.8894 29.1502 69.0971C28.6867 69.3333 28.08 69.3333 26.8665 69.3333H16.4665C15.2531 69.3333 14.6463 69.3333 14.1829 69.0971C13.7752 68.8894 13.4437 68.558 13.236 68.1503C12.9998 67.6868 12.9998 67.0801 12.9998 65.8666V55.4666Z" stroke="white" stroke-width="4" stroke-linecap="round" stroke-linejoin="round"/>
<path d="M8.6665 12.1333C8.6665 10.9198 8.6665 10.3131 8.90266 9.84965C9.11038 9.44196 9.44184 9.1105 9.84952 8.90278C10.313 8.66663 10.9197 8.66663 12.1332 8.66663H22.5332C23.7466 8.66663 24.3533 8.66663 24.8168 8.90278C25.2245 9.1105 25.556 9.44196 25.7637 9.84965C25.9998 10.3131 25.9998 10.9198 25.9998 12.1333V22.5333C25.9998 23.7467 25.9998 24.3535 25.7637 24.8169C25.556 25.2246 25.2245 25.5561 24.8168 25.7638C24.3533 26 23.7466 26 22.5332 26H12.1332C10.9197 26 10.313 26 9.84952 25.7638C9.44184 25.5561 9.11038 25.2246 8.90266 24.8169C8.6665 24.3535 8.6665 23.7467 8.6665 22.5333V12.1333Z" stroke="white" stroke-width="4" stroke-linecap="round" stroke-linejoin="round"/>
</svg>
